<svg width="248" height="470" viewBox="0 0 248 470" fill="none" xmlns="http://www.w3.org/2000/svg">
<g id="available">
<path id="Vector" d="M241.033 245.206L245.755 241.827L247.445 244.188L242.723 247.567L241.033 245.206Z" fill="#E5E5E5" fill-opacity="0.08"/>
<g id="Group 12">
<g id="SLING">
<g id="BOARD">
<rect id="Rectangle 2" x="4.76407" y="366.735" width="136" height="136" rx="20" transform="rotate(-44.0515 4.76407 366.735)" fill="#C4C4C4" stroke="black" stroke-width="4"/>
<rect id="Rectangle 1" x="9.00613" y="366.806" width="130" height="130" rx="16" transform="rotate(-44.0515 9.00613 366.806)" fill="#E3C214"/>
<g id="AVAILABLE">
<path d="M46.7199 367.442L43.8914 360.497C43.8076 360.291 43.7192 360.052 43.6262 359.782C43.533 359.504 43.4436 359.209 43.3578 358.899C43.2018 359.55 43.0398 360.093 42.8718 360.528L40.301 367.561L46.7199 367.442ZM51.6848 373.736L49.8851 373.769C49.6771 373.773 49.5082 373.724 49.3783 373.622C49.2484 373.521 49.15 373.39 49.083 373.232L47.3988 369.11L39.6841 369.252L38.1529 373.433C38.1076 373.578 38.0179 373.708 37.884 373.822C37.7501 373.937 37.5832 373.996 37.3832 373.999L35.5835 374.033L42.1413 356.713L44.4929 356.669L51.6848 373.736ZM66.3184 356.267L59.6286 373.589L57.5409 373.628L50.2171 356.564L52.0768 356.53C52.2847 356.526 52.4537 356.575 52.5836 356.676C52.7135 356.778 52.8119 356.908 52.8788 357.067L57.9496 369.108C58.0586 369.378 58.1641 369.672 58.266 369.99C58.3758 370.308 58.474 370.642 58.5605 370.993C58.634 370.639 58.7118 370.302 58.7939 369.98C58.876 369.659 58.9665 369.361 59.0655 369.087L63.677 356.868C63.7225 356.731 63.8122 356.605 63.9461 356.491C64.0878 356.368 64.2587 356.305 64.4587 356.301L66.3184 356.267ZM76.6211 366.891L73.7926 359.946C73.7088 359.739 73.6203 359.501 73.5273 359.231C73.4342 358.952 73.3448 358.658 73.259 358.347C73.103 358.998 72.941 359.542 72.773 359.977L70.2022 367.009L76.6211 366.891ZM81.5859 373.184L79.7863 373.218C79.5783 373.222 79.4094 373.173 79.2795 373.071C79.1496 372.969 79.0512 372.839 78.9842 372.68L77.2999 368.559L69.5853 368.701L68.0541 372.882C68.0087 373.027 67.9191 373.156 67.7852 373.271C67.6513 373.385 67.4843 373.444 67.2844 373.448L65.4847 373.481L72.0425 356.162L74.3941 356.118L81.5859 373.184ZM86.1754 373.1L83.8477 373.143L83.5307 355.95L85.8583 355.907L86.1754 373.1ZM100.291 370.883L100.328 372.839L90.5732 373.019L90.2562 355.826L92.5718 355.783L92.8527 371.02L100.291 370.883ZM111.912 366.24L109.083 359.295C109 359.089 108.911 358.85 108.818 358.58C108.725 358.302 108.636 358.007 108.55 357.697C108.394 358.348 108.232 358.891 108.064 359.326L105.493 366.359L111.912 366.24ZM116.877 372.534L115.077 372.567C114.869 372.571 114.7 372.522 114.57 372.42C114.44 372.319 114.342 372.188 114.275 372.03L112.591 367.908L104.876 368.05L103.345 372.231C103.3 372.376 103.21 372.506 103.076 372.62C102.942 372.735 102.775 372.794 102.575 372.797L100.776 372.831L107.333 355.511L109.685 355.467L116.877 372.534ZM125.14 370.533C125.803 370.521 126.374 370.434 126.851 370.274C127.328 370.113 127.716 369.894 128.015 369.616C128.322 369.33 128.544 368.998 128.681 368.62C128.818 368.233 128.882 367.812 128.874 367.356C128.857 366.468 128.528 365.774 127.887 365.274C127.246 364.765 126.293 364.523 125.029 364.546L121.31 364.615L121.42 370.602L125.14 370.533ZM121.171 357.092L121.279 362.959L124.351 362.902C125.007 362.89 125.573 362.808 126.05 362.655C126.536 362.502 126.932 362.295 127.239 362.033C127.554 361.771 127.785 361.459 127.93 361.096C128.075 360.725 128.144 360.324 128.136 359.892C128.117 358.876 127.8 358.142 127.183 357.689C126.567 357.229 125.618 357.01 124.339 357.034L121.171 357.092ZM124.305 355.198C125.361 355.178 126.27 355.266 127.034 355.46C127.806 355.653 128.439 355.938 128.934 356.313C129.437 356.688 129.81 357.153 130.052 357.708C130.294 358.256 130.422 358.878 130.434 359.574C130.442 359.998 130.382 360.407 130.253 360.801C130.132 361.188 129.943 361.551 129.685 361.892C129.427 362.233 129.097 362.543 128.694 362.822C128.299 363.094 127.831 363.318 127.29 363.496C128.558 363.713 129.515 364.147 130.159 364.8C130.811 365.444 131.147 366.302 131.166 367.374C131.18 368.101 131.056 368.768 130.795 369.373C130.542 369.977 130.16 370.501 129.648 370.942C129.144 371.383 128.518 371.731 127.771 371.985C127.023 372.231 126.169 372.362 125.21 372.38L119.139 372.492L118.822 355.299L124.305 355.198ZM144.37 370.071L144.406 372.026L134.652 372.206L134.335 355.013L136.65 354.97L136.931 370.208L144.37 370.071ZM157.549 369.888L157.572 371.783L146.978 371.979L146.661 354.786L157.255 354.59L157.29 356.486L149.023 356.638L149.128 362.35L155.823 362.226L155.857 364.05L149.162 364.173L149.27 370.04L157.549 369.888Z" fill="black"/>
<path d="M46.7199 367.442L46.7383 368.442L48.1959 368.415L47.6461 367.065L46.7199 367.442ZM43.8914 360.497L42.9648 360.873L42.9653 360.874L43.8914 360.497ZM43.6262 359.782L42.6778 360.099L42.6806 360.107L43.6262 359.782ZM43.3578 358.899L44.3218 358.633L42.3854 358.666L43.3578 358.899ZM42.8718 360.528L41.9389 360.168L41.9357 360.176L41.9326 360.185L42.8718 360.528ZM40.301 367.561L39.3618 367.217L38.861 368.587L40.3194 368.56L40.301 367.561ZM51.6848 373.736L51.7032 374.736L53.1798 374.708L52.6063 373.347L51.6848 373.736ZM49.3783 373.622L48.7621 374.41L48.7621 374.41L49.3783 373.622ZM49.083 373.232L48.1573 373.61L48.1616 373.62L49.083 373.232ZM47.3988 369.11L48.3245 368.732L48.0653 368.098L47.3803 368.11L47.3988 369.11ZM39.6841 369.252L39.6657 368.252L38.9807 368.265L38.7451 368.908L39.6841 369.252ZM38.1529 373.433L37.2139 373.089L37.2057 373.112L37.1985 373.135L38.1529 373.433ZM37.884 373.822L38.5339 374.582L38.5339 374.582L37.884 373.822ZM35.5835 374.033L34.6483 373.679L34.1254 375.06L35.6019 375.033L35.5835 374.033ZM42.1413 356.713L42.1229 355.713L41.4459 355.725L41.2061 356.359L42.1413 356.713ZM44.4929 356.669L45.4145 356.281L45.1515 355.657L44.4745 355.67L44.4929 356.669ZM47.6461 367.065L44.8175 360.12L42.9653 360.874L45.7938 367.819L47.6461 367.065ZM44.818 360.121C44.7425 359.935 44.6604 359.714 44.5718 359.457L42.6806 360.107C42.7779 360.39 42.8726 360.646 42.9648 360.873L44.818 360.121ZM44.5745 359.465C44.4875 359.205 44.4032 358.928 44.3218 358.633L42.3939 359.165C42.484 359.491 42.5785 359.803 42.6779 360.099L44.5745 359.465ZM42.3854 358.666C42.2357 359.29 42.0857 359.788 41.9389 360.168L43.8047 360.888C43.9939 360.398 44.168 359.809 44.3303 359.132L42.3854 358.666ZM41.9326 360.185L39.3618 367.217L41.2402 367.904L43.811 360.871L41.9326 360.185ZM40.3194 368.56L46.7383 368.442L46.7015 366.442L40.2826 366.561L40.3194 368.56ZM51.6663 372.736L49.8667 372.769L49.9035 374.769L51.7032 374.736L51.6663 372.736ZM49.8667 372.769C49.8451 372.77 49.8529 372.767 49.8804 372.775C49.9105 372.783 49.9523 372.802 49.9945 372.835L48.7621 374.41C49.1159 374.687 49.5272 374.776 49.9035 374.769L49.8667 372.769ZM49.9945 372.835C49.9955 372.835 49.9972 372.837 49.9993 372.839C50.0014 372.841 50.0033 372.843 50.0048 372.845C50.0083 372.85 50.0076 372.851 50.0045 372.843L48.1616 373.62C48.2916 373.928 48.492 374.199 48.7621 374.41L49.9945 372.835ZM50.0087 372.853L48.3245 368.732L46.4731 369.488L48.1573 373.61L50.0087 372.853ZM47.3803 368.11L39.6657 368.252L39.7025 370.252L47.4172 370.11L47.3803 368.11ZM38.7451 368.908L37.2139 373.089L39.0919 373.777L40.6231 369.596L38.7451 368.908ZM37.1985 373.135C37.2071 373.107 37.2188 373.085 37.229 373.071C37.2387 373.057 37.2431 373.055 37.2342 373.062L38.5339 374.582C38.7872 374.366 38.9972 374.083 39.1073 373.732L37.1985 373.135ZM37.2342 373.062C37.261 373.039 37.2931 373.021 37.3247 373.01C37.3548 372.999 37.371 373 37.3648 373L37.4016 374.999C37.8003 374.992 38.2 374.868 38.5339 374.582L37.2342 373.062ZM37.3648 373L35.5651 373.033L35.6019 375.033L37.4016 374.999L37.3648 373ZM36.5187 374.387L43.0766 357.067L41.2061 356.359L34.6483 373.679L36.5187 374.387ZM42.1598 357.713L44.5114 357.669L44.4745 355.67L42.1229 355.713L42.1598 357.713ZM43.5714 357.058L50.7633 374.124L52.6063 373.347L45.4145 356.281L43.5714 357.058ZM66.3184 356.267L67.2512 356.627L67.7871 355.24L66.2999 355.267L66.3184 356.267ZM59.6286 373.589L59.647 374.589L60.3192 374.577L60.5614 373.95L59.6286 373.589ZM57.5409 373.628L56.622 374.022L56.8871 374.64L57.5593 374.628L57.5409 373.628ZM50.2171 356.564L50.1987 355.564L48.7115 355.592L49.2982 356.958L50.2171 356.564ZM52.8788 357.067L53.8004 356.679L53.8003 356.679L52.8788 357.067ZM57.9496 369.108L58.877 368.733L58.8742 368.726L58.8713 368.719L57.9496 369.108ZM58.266 369.99L57.3136 370.295L57.3171 370.306L57.3208 370.316L58.266 369.99ZM58.5605 370.993L57.5896 371.232L59.5396 371.196L58.5605 370.993ZM58.7939 369.98L59.7628 370.227L59.7628 370.227L58.7939 369.98ZM59.0655 369.087L58.1298 368.734L58.125 368.747L59.0655 369.087ZM63.677 356.868L64.6126 357.221L64.6196 357.202L64.626 357.183L63.677 356.868ZM63.9461 356.491L64.5959 357.251L64.6003 357.247L63.9461 356.491ZM65.3855 355.907L58.6957 373.229L60.5614 373.95L67.2512 356.627L65.3855 355.907ZM59.6101 372.59L57.5225 372.628L57.5593 374.628L59.647 374.589L59.6101 372.59ZM58.4598 373.233L51.136 356.17L49.2982 356.958L56.622 374.022L58.4598 373.233ZM50.2355 357.564L52.0952 357.529L52.0583 355.53L50.1987 355.564L50.2355 357.564ZM52.0952 357.529C52.1167 357.529 52.109 357.532 52.0814 357.524C52.0514 357.515 52.0096 357.497 51.9674 357.464L53.1997 355.889C52.8459 355.612 52.4346 355.523 52.0583 355.53L52.0952 357.529ZM51.9674 357.464C51.9664 357.463 51.9647 357.462 51.9626 357.46C51.9605 357.457 51.9586 357.455 51.957 357.453C51.9536 357.449 51.9543 357.448 51.9573 357.455L53.8003 356.679C53.6703 356.37 53.4698 356.1 53.1997 355.889L51.9674 357.464ZM51.9572 357.455L57.028 369.496L58.8713 368.719L53.8004 356.679L51.9572 357.455ZM57.0223 369.482C57.1209 369.726 57.2181 369.997 57.3136 370.295L59.2183 369.685C59.11 369.347 58.9964 369.029 58.877 368.733L57.0223 369.482ZM57.3208 370.316C57.4201 370.604 57.5099 370.909 57.5896 371.232L59.5314 370.753C59.4382 370.375 59.3316 370.012 59.2111 369.663L57.3208 370.316ZM59.5396 371.196C59.6103 370.856 59.6847 370.533 59.7628 370.227L57.8249 369.733C57.7389 370.07 57.6577 370.422 57.5814 370.789L59.5396 371.196ZM59.7628 370.227C59.838 369.933 59.9193 369.666 60.0059 369.427L58.125 368.747C58.0137 369.055 57.9139 369.384 57.8249 369.733L59.7628 370.227ZM60.001 369.44L64.6126 357.221L62.7414 356.515L58.1299 368.734L60.001 369.44ZM64.626 357.183C64.6151 357.216 64.6014 357.239 64.5923 357.252C64.5839 357.264 64.5822 357.263 64.5959 357.251L63.2963 355.731C63.0546 355.937 62.8424 356.208 62.728 356.552L64.626 357.183ZM64.6003 357.247C64.5831 357.262 64.5577 357.278 64.5273 357.289C64.4977 357.3 64.4783 357.301 64.4771 357.301L64.4402 355.302C64.0233 355.309 63.6229 355.448 63.2918 355.735L64.6003 357.247ZM64.4771 357.301L66.3368 357.267L66.2999 355.267L64.4402 355.302L64.4771 357.301ZM76.6211 366.891L76.6395 367.891L78.0971 367.864L77.5472 366.514L76.6211 366.891ZM73.7926 359.946L72.866 360.322L72.8664 360.323L73.7926 359.946ZM73.5273 359.231L72.579 359.548L72.5817 359.556L73.5273 359.231ZM73.259 358.347L74.2229 358.081L72.2866 358.114L73.259 358.347ZM72.773 359.977L71.8401 359.617L71.8368 359.625L71.8338 359.633L72.773 359.977ZM70.2022 367.009L69.263 366.666L68.7621 368.036L70.2206 368.009L70.2022 367.009ZM81.5859 373.184L81.6044 374.184L83.081 374.157L82.5075 372.796L81.5859 373.184ZM79.2795 373.071L78.6633 373.859L78.6633 373.859L79.2795 373.071ZM78.9842 372.68L78.0585 373.059L78.0627 373.069L78.9842 372.68ZM77.2999 368.559L78.2256 368.18L77.9665 367.546L77.2815 367.559L77.2999 368.559ZM69.5853 368.701L69.5668 367.701L68.8818 367.714L68.6462 368.357L69.5853 368.701ZM68.0541 372.882L67.1151 372.538L67.1068 372.56L67.0997 372.583L68.0541 372.882ZM67.7852 373.271L68.435 374.031L67.7852 373.271ZM65.4847 373.481L64.5495 373.127L64.0265 374.508L65.5031 374.481L65.4847 373.481ZM72.0425 356.162L72.0241 355.162L71.3471 355.174L71.1073 355.807L72.0425 356.162ZM74.3941 356.118L75.3156 355.73L75.0527 355.106L74.3757 355.118L74.3941 356.118ZM77.5472 366.514L74.7187 359.569L72.8664 360.323L75.6949 367.268L77.5472 366.514ZM74.7191 359.57C74.6437 359.384 74.5616 359.163 74.473 358.905L72.5817 359.556C72.6791 359.839 72.7738 360.095 72.866 360.322L74.7191 359.57ZM74.4756 358.913C74.3887 358.653 74.3044 358.376 74.2229 358.081L72.2951 358.614C72.3851 358.94 72.4797 359.251 72.579 359.548L74.4756 358.913ZM72.2866 358.114C72.1368 358.739 71.9869 359.236 71.8401 359.617L73.7059 360.337C73.8951 359.847 74.0691 359.258 74.2315 358.581L72.2866 358.114ZM71.8338 359.633L69.263 366.666L71.1414 367.353L73.7122 360.32L71.8338 359.633ZM70.2206 368.009L76.6395 367.891L76.6026 365.891L70.1837 366.009L70.2206 368.009ZM81.5675 372.185L79.7678 372.218L79.8047 374.218L81.6044 374.184L81.5675 372.185ZM79.7678 372.218C79.7463 372.218 79.7541 372.215 79.7816 372.223C79.8116 372.232 79.8534 372.25 79.8956 372.283L78.6633 373.859C79.0171 374.135 79.4284 374.224 79.8047 374.218L79.7678 372.218ZM79.8956 372.283C79.8966 372.284 79.8983 372.286 79.9004 372.288C79.9025 372.29 79.9044 372.292 79.906 372.294C79.9095 372.299 79.9088 372.299 79.9057 372.292L78.0627 373.069C78.1927 373.377 78.3932 373.647 78.6633 373.859L79.8956 372.283ZM79.9099 372.302L78.2256 368.18L76.3742 368.937L78.0585 373.059L79.9099 372.302ZM77.2815 367.559L69.5668 367.701L69.6037 369.701L77.3184 369.559L77.2815 367.559ZM68.6462 368.357L67.1151 372.538L68.9931 373.226L70.5243 369.045L68.6462 368.357ZM67.0997 372.583C67.1083 372.556 67.12 372.534 67.1302 372.519C67.1399 372.505 67.1443 372.503 67.1354 372.511L68.435 374.031C68.6884 373.814 68.8984 373.532 69.0084 373.181L67.0997 372.583ZM67.1354 372.511C67.1622 372.488 67.1943 372.47 67.2259 372.458C67.2559 372.448 67.2722 372.448 67.2659 372.448L67.3028 374.448C67.7015 374.441 68.1011 374.316 68.435 374.031L67.1354 372.511ZM67.2659 372.448L65.4662 372.482L65.5031 374.481L67.3028 374.448L67.2659 372.448ZM66.4199 373.835L72.9777 356.516L71.1073 355.807L64.5495 373.127L66.4199 373.835ZM72.0609 357.161L74.4125 357.118L74.3757 355.118L72.0241 355.162L72.0609 357.161ZM73.4726 356.507L80.6644 373.573L82.5075 372.796L75.3156 355.73L73.4726 356.507ZM86.1754 373.1L86.1938 374.1L87.1936 374.081L87.1752 373.081L86.1754 373.1ZM83.8477 373.143L82.8479 373.161L82.8664 374.161L83.8662 374.143L83.8477 373.143ZM83.5307 355.95L83.5123 354.95L82.5125 354.968L82.5309 355.968L83.5307 355.95ZM85.8583 355.907L86.8582 355.888L86.8397 354.889L85.8399 354.907L85.8583 355.907ZM86.1569 372.1L83.8293 372.143L83.8662 374.143L86.1938 374.1L86.1569 372.1ZM84.8476 373.124L84.5306 355.931L82.5309 355.968L82.8479 373.161L84.8476 373.124ZM83.5492 356.95L85.8768 356.907L85.8399 354.907L83.5123 354.95L83.5492 356.95ZM84.8585 355.925L85.1755 373.118L87.1752 373.081L86.8582 355.888L84.8585 355.925ZM100.291 370.883L101.291 370.865L101.273 369.865L100.273 369.883L100.291 370.883ZM100.328 372.839L100.346 373.839L101.346 373.82L101.327 372.821L100.328 372.839ZM90.5732 373.019L89.5733 373.037L89.5918 374.037L90.5916 374.019L90.5732 373.019ZM90.2562 355.826L90.2377 354.826L89.2379 354.844L89.2563 355.844L90.2562 355.826ZM92.5718 355.783L93.5716 355.765L93.5532 354.765L92.5533 354.783L92.5718 355.783ZM92.8527 371.02L91.8529 371.039L91.8713 372.039L92.8712 372.02L92.8527 371.02ZM99.2916 370.902L99.3277 372.857L101.327 372.821L101.291 370.865L99.2916 370.902ZM100.309 371.839L90.5547 372.019L90.5916 374.019L100.346 373.839L100.309 371.839ZM91.573 373L91.256 355.807L89.2563 355.844L89.5733 373.037L91.573 373ZM90.2746 356.826L92.5902 356.783L92.5533 354.783L90.2377 354.826L90.2746 356.826ZM91.5719 355.801L91.8529 371.039L93.8525 371.002L93.5716 355.765L91.5719 355.801ZM92.8712 372.02L100.31 371.883L100.273 369.883L92.8343 370.021L92.8712 372.02ZM111.912 366.24L111.93 367.24L113.388 367.213L112.838 365.863L111.912 366.24ZM109.083 359.295L108.157 359.671L108.157 359.672L109.083 359.295ZM108.818 358.58L107.87 358.897L107.873 358.905L108.818 358.58ZM108.55 357.697L109.514 357.431L107.577 357.464L108.55 357.697ZM108.064 359.326L107.131 358.966L107.128 358.974L107.125 358.983L108.064 359.326ZM105.493 366.359L104.554 366.015L104.053 367.385L105.511 367.358L105.493 366.359ZM116.877 372.534L116.895 373.534L118.372 373.506L117.798 372.145L116.877 372.534ZM114.57 372.42L113.954 373.208L113.954 373.208L114.57 372.42ZM114.275 372.03L113.349 372.408L113.354 372.418L114.275 372.03ZM112.591 367.908L113.517 367.53L113.257 366.896L112.572 366.908L112.591 367.908ZM104.876 368.05L104.858 367.05L104.173 367.063L103.937 367.706L104.876 368.05ZM103.345 372.231L102.406 371.887L102.398 371.91L102.391 371.933L103.345 372.231ZM103.076 372.62L103.726 373.38L103.076 372.62ZM100.776 372.831L99.8404 372.477L99.3174 373.858L100.794 373.831L100.776 372.831ZM107.333 355.511L107.315 354.511L106.638 354.523L106.398 355.157L107.333 355.511ZM109.685 355.467L110.607 355.079L110.344 354.455L109.667 354.468L109.685 355.467ZM112.838 365.863L110.01 358.918L108.157 359.672L110.986 366.617L112.838 365.863ZM110.01 358.919C109.935 358.733 109.852 358.512 109.764 358.255L107.873 358.905C107.97 359.188 108.065 359.444 108.157 359.671L110.01 358.919ZM109.767 358.263C109.68 358.003 109.595 357.726 109.514 357.431L107.586 357.963C107.676 358.289 107.771 358.601 107.87 358.897L109.767 358.263ZM107.577 357.464C107.428 358.088 107.278 358.586 107.131 358.966L108.997 359.686C109.186 359.196 109.36 358.607 109.522 357.93L107.577 357.464ZM107.125 358.983L104.554 366.015L106.432 366.702L109.003 359.669L107.125 358.983ZM105.511 367.358L111.93 367.24L111.894 365.24L105.475 365.359L105.511 367.358ZM116.858 371.534L115.059 371.567L115.096 373.567L116.895 373.534L116.858 371.534ZM115.059 371.567C115.037 371.568 115.045 371.565 115.072 371.573C115.103 371.581 115.144 371.6 115.187 371.633L113.954 373.208C114.308 373.485 114.719 373.574 115.096 373.567L115.059 371.567ZM115.187 371.633C115.188 371.633 115.189 371.635 115.191 371.637C115.193 371.639 115.195 371.641 115.197 371.643C115.2 371.648 115.2 371.649 115.197 371.641L113.354 372.418C113.484 372.726 113.684 372.997 113.954 373.208L115.187 371.633ZM115.201 371.651L113.517 367.53L111.665 368.286L113.349 372.408L115.201 371.651ZM112.572 366.908L104.858 367.05L104.895 369.05L112.609 368.908L112.572 366.908ZM103.937 367.706L102.406 371.887L104.284 372.575L105.815 368.394L103.937 367.706ZM102.391 371.933C102.399 371.905 102.411 371.883 102.421 371.869C102.431 371.855 102.435 371.853 102.426 371.86L103.726 373.38C103.979 373.164 104.189 372.881 104.299 372.53L102.391 371.933ZM102.426 371.86C102.453 371.837 102.485 371.819 102.517 371.808C102.547 371.797 102.563 371.798 102.557 371.798L102.594 373.797C102.992 373.79 103.392 373.666 103.726 373.38L102.426 371.86ZM102.557 371.798L100.757 371.831L100.794 373.831L102.594 373.797L102.557 371.798ZM101.711 373.185L108.269 355.865L106.398 355.157L99.8404 372.477L101.711 373.185ZM107.352 356.511L109.703 356.467L109.667 354.468L107.315 354.511L107.352 356.511ZM108.763 355.856L115.955 372.922L117.798 372.145L110.607 355.079L108.763 355.856ZM128.015 369.616L128.696 370.349L128.697 370.348L128.015 369.616ZM128.681 368.62L129.621 368.96L129.624 368.953L128.681 368.62ZM127.887 365.274L127.266 366.057L127.272 366.062L127.887 365.274ZM121.31 364.615L121.291 363.615L120.292 363.633L120.31 364.633L121.31 364.615ZM121.42 370.602L120.42 370.62L120.439 371.62L121.439 371.602L121.42 370.602ZM121.171 357.092L121.153 356.092L120.153 356.111L120.171 357.11L121.171 357.092ZM121.279 362.959L120.279 362.977L120.298 363.977L121.298 363.959L121.279 362.959ZM126.05 362.655L125.75 361.701L125.746 361.703L126.05 362.655ZM127.239 362.033L126.6 361.264L126.591 361.272L127.239 362.033ZM127.93 361.096L128.858 361.468L128.861 361.461L127.93 361.096ZM127.183 357.689L126.585 358.49L126.591 358.495L127.183 357.689ZM127.034 355.46L126.788 356.429L126.79 356.43L127.034 355.46ZM128.934 356.313L128.33 357.11L128.337 357.115L128.934 356.313ZM130.052 357.708L129.135 358.108L129.137 358.113L130.052 357.708ZM130.253 360.801L129.302 360.491L129.299 360.503L130.253 360.801ZM128.694 362.822L129.26 363.647L129.264 363.644L128.694 362.822ZM127.29 363.496L126.978 362.546L127.122 364.482L127.29 363.496ZM130.159 364.8L129.447 365.502L129.456 365.511L130.159 364.8ZM130.795 369.373L129.877 368.977L129.873 368.987L130.795 369.373ZM129.648 370.942L128.995 370.185L128.989 370.19L129.648 370.942ZM127.771 371.985L128.083 372.935L128.092 372.932L127.771 371.985ZM119.139 372.492L118.139 372.511L118.157 373.51L119.157 373.492L119.139 372.492ZM118.822 355.299L118.803 354.299L117.803 354.318L117.822 355.317L118.822 355.299ZM125.158 371.533C125.894 371.519 126.571 371.423 127.17 371.221L126.532 369.326C126.177 369.446 125.713 369.522 125.121 369.533L125.158 371.533ZM127.17 371.221C127.751 371.025 128.272 370.743 128.696 370.349L127.335 368.883C127.161 369.045 126.905 369.2 126.532 369.326L127.17 371.221ZM128.697 370.348C129.115 369.959 129.428 369.494 129.621 368.96L127.741 368.279C127.66 368.502 127.529 368.702 127.334 368.884L128.697 370.348ZM129.624 368.953C129.805 368.442 129.884 367.9 129.873 367.337L127.874 367.374C127.88 367.724 127.831 368.024 127.738 368.286L129.624 368.953ZM129.873 367.337C129.852 366.179 129.405 365.189 128.502 364.485L127.272 366.062C127.652 366.358 127.862 366.756 127.874 367.374L129.873 367.337ZM128.508 364.49C127.609 363.778 126.386 363.521 125.011 363.546L125.048 365.546C126.2 365.525 126.882 365.753 127.266 366.057L128.508 364.49ZM125.011 363.546L121.291 363.615L121.328 365.615L125.048 365.546L125.011 363.546ZM120.31 364.633L120.42 370.62L122.42 370.583L122.31 364.596L120.31 364.633ZM121.439 371.602L125.158 371.533L125.121 369.533L121.402 369.602L121.439 371.602ZM120.171 357.11L120.279 362.977L122.279 362.941L122.171 357.074L120.171 357.11ZM121.298 363.959L124.369 363.902L124.332 361.903L121.261 361.959L121.298 363.959ZM124.369 363.902C125.094 363.889 125.762 363.797 126.355 363.607L125.746 361.703C125.384 361.818 124.919 361.892 124.332 361.903L124.369 363.902ZM126.351 363.609C126.932 363.426 127.456 363.162 127.888 362.794L126.591 361.272C126.408 361.427 126.14 361.578 125.75 361.701L126.351 363.609ZM127.878 362.802C128.315 362.439 128.648 361.993 128.858 361.468L127.002 360.724C126.921 360.925 126.794 361.103 126.6 361.264L127.878 362.802ZM128.861 361.461C129.058 360.958 129.146 360.425 129.136 359.874L127.136 359.911C127.142 360.223 127.092 360.493 126.999 360.731L128.861 361.461ZM129.136 359.874C129.113 358.657 128.72 357.578 127.775 356.883L126.591 358.495C126.879 358.706 127.121 359.096 127.136 359.911L129.136 359.874ZM127.782 356.888C126.903 356.232 125.687 356.009 124.32 356.034L124.357 358.033C125.549 358.011 126.23 358.225 126.585 358.49L127.782 356.888ZM124.32 356.034L121.153 356.092L121.19 358.092L124.357 358.033L124.32 356.034ZM124.323 356.198C125.318 356.179 126.134 356.263 126.788 356.429L127.28 354.49C126.406 354.269 125.403 354.178 124.286 354.198L124.323 356.198ZM126.79 356.43C127.467 356.599 127.968 356.836 128.33 357.11L129.538 355.516C128.91 355.04 128.145 354.708 127.278 354.49L126.79 356.43ZM128.337 357.115C128.705 357.389 128.965 357.718 129.135 358.108L130.969 357.309C130.654 356.588 130.169 355.986 129.532 355.511L128.337 357.115ZM129.137 358.113C129.318 358.521 129.424 359.008 129.435 359.592L131.434 359.555C131.419 358.748 131.27 357.991 130.967 357.304L129.137 358.113ZM129.435 359.592C129.44 359.907 129.396 360.205 129.302 360.491L131.204 361.112C131.368 360.609 131.444 360.088 131.434 359.555L129.435 359.592ZM129.299 360.503C129.214 360.773 129.08 361.034 128.887 361.289L130.483 362.495C130.806 362.068 131.05 361.602 131.207 361.1L129.299 360.503ZM128.887 361.289C128.702 361.534 128.453 361.773 128.124 362.001L129.264 363.644C129.741 363.313 130.152 362.932 130.483 362.495L128.887 361.289ZM128.128 361.998C127.824 362.207 127.445 362.393 126.978 362.546L127.603 364.446C128.217 364.244 128.774 363.981 129.26 363.647L128.128 361.998ZM127.122 364.482C128.264 364.677 128.999 365.048 129.447 365.502L130.87 364.097C130.03 363.247 128.852 362.749 127.459 362.511L127.122 364.482ZM129.456 365.511C129.891 365.941 130.151 366.533 130.166 367.392L132.166 367.355C132.142 366.07 131.73 364.947 130.861 364.088L129.456 365.511ZM130.166 367.392C130.178 367.993 130.076 368.516 129.877 368.977L131.713 369.769C132.036 369.02 132.182 368.21 132.166 367.355L130.166 367.392ZM129.873 368.987C129.681 369.444 129.393 369.841 128.995 370.185L130.301 371.699C130.926 371.16 131.403 370.511 131.718 369.758L129.873 368.987ZM128.989 370.19C128.6 370.531 128.094 370.819 127.449 371.038L128.092 372.932C128.942 372.643 129.688 372.236 130.307 371.694L128.989 370.19ZM127.458 371.035C126.824 371.244 126.072 371.364 125.191 371.38L125.228 373.38C126.267 373.361 127.222 373.218 128.083 372.935L127.458 371.035ZM125.191 371.38L119.12 371.492L119.157 373.492L125.228 373.38L125.191 371.38ZM120.138 372.474L119.821 355.281L117.822 355.317L118.139 372.511L120.138 372.474ZM118.84 356.299L124.323 356.198L124.286 354.198L118.803 354.299L118.84 356.299ZM144.37 370.071L145.37 370.052L145.351 369.052L144.351 369.071L144.37 370.071ZM144.406 372.026L144.424 373.026L145.424 373.008L145.406 372.008L144.406 372.026ZM134.652 372.206L133.652 372.225L133.67 373.224L134.67 373.206L134.652 372.206ZM134.335 355.013L134.316 354.013L133.316 354.032L133.335 355.031L134.335 355.013ZM136.65 354.97L137.65 354.952L137.632 353.952L136.632 353.97L136.65 354.97ZM136.931 370.208L135.931 370.226L135.95 371.226L136.95 371.208L136.931 370.208ZM143.37 370.089L143.406 372.045L145.406 372.008L145.37 370.052L143.37 370.089ZM144.388 371.026L134.633 371.206L134.67 373.206L144.424 373.026L144.388 371.026ZM135.651 372.188L135.334 354.995L133.335 355.031L133.652 372.225L135.651 372.188ZM134.353 356.013L136.669 355.97L136.632 353.97L134.316 354.013L134.353 356.013ZM135.65 354.989L135.931 370.226L137.931 370.189L137.65 354.952L135.65 354.989ZM136.95 371.208L144.388 371.07L144.351 369.071L136.913 369.208L136.95 371.208ZM157.549 369.888L158.549 369.875L158.537 368.869L157.53 368.888L157.549 369.888ZM157.572 371.783L157.59 372.783L158.584 372.765L158.572 371.771L157.572 371.783ZM146.978 371.979L145.978 371.997L145.996 372.997L146.996 372.979L146.978 371.979ZM146.661 354.786L146.642 353.786L145.642 353.804L145.661 354.804L146.661 354.786ZM157.255 354.59L158.255 354.572L158.236 353.572L157.236 353.591L157.255 354.59ZM157.29 356.486L157.308 357.486L158.308 357.467L158.29 356.468L157.29 356.486ZM149.023 356.638L149.005 355.639L148.005 355.657L148.023 356.657L149.023 356.638ZM149.128 362.35L148.129 362.368L148.147 363.368L149.147 363.349L149.128 362.35ZM155.823 362.226L156.823 362.208L156.805 361.208L155.805 361.226L155.823 362.226ZM155.857 364.05L155.875 365.05L156.875 365.031L156.857 364.031L155.857 364.05ZM149.162 364.173L149.144 363.173L148.144 363.192L148.162 364.192L149.162 364.173ZM149.27 370.04L148.27 370.059L148.289 371.058L149.289 371.04L149.27 370.04ZM156.549 369.9L156.572 371.796L158.572 371.771L158.549 369.875L156.549 369.9ZM157.553 370.784L146.959 370.979L146.996 372.979L157.59 372.783L157.553 370.784ZM147.977 371.96L147.66 354.767L145.661 354.804L145.978 371.997L147.977 371.96ZM146.679 355.786L157.273 355.59L157.236 353.591L146.642 353.786L146.679 355.786ZM156.255 354.609L156.29 356.505L158.29 356.468L158.255 354.572L156.255 354.609ZM157.271 355.486L149.005 355.639L149.042 357.638L157.308 357.486L157.271 355.486ZM148.023 356.657L148.129 362.368L150.128 362.331L150.023 356.62L148.023 356.657ZM149.147 363.349L155.842 363.226L155.805 361.226L149.11 361.35L149.147 363.349ZM154.824 362.245L154.857 364.068L156.857 364.031L156.823 362.208L154.824 362.245ZM155.839 363.05L149.144 363.173L149.181 365.173L155.875 365.05L155.839 363.05ZM148.162 364.192L148.27 370.059L150.27 370.022L150.162 364.155L148.162 364.192ZM149.289 371.04L157.567 370.887L157.53 368.888L149.252 369.04L149.289 371.04Z" fill="white" fill-opacity="0.97"/>
</g>
</g>
<line id="Line 1" x1="102.417" y1="31.0978" x2="102.417" y2="282.46" stroke="black" stroke-width="3"/>
</g>
<circle id="base" cx="100.917" cy="20.9314" r="17.5" transform="rotate(-10.5011 100.917 20.9314)" fill="#69E781" fill-opacity="0.81"/>
</g>
</g>
</svg>
