<svg width="289" height="51" viewBox="0 0 289 51" fill="none" xmlns="http://www.w3.org/2000/svg">
<g filter="url(#filter0_d)">
<path d="M36.7333 28.4775L33.9465 27.367L33.9465 27.367L36.7333 28.4775ZM33.1573 33.9735L31.036 31.8522L31.036 31.8522L33.1573 33.9735ZM27.6133 37.5495L28.7097 40.342L28.7097 40.342L27.6133 37.5495ZM7.18933 38.8215H4.18933V41.8215H7.18933V38.8215ZM7.18933 4.11753V1.11753H4.18933V4.11753H7.18933ZM27.6133 5.41353L26.4992 8.19896L26.5081 8.20253L26.517 8.20604L27.6133 5.41353ZM33.1573 8.98953L31.036 11.1109L31.0416 11.1164L31.0471 11.1219L33.1573 8.98953ZM36.7333 14.4615L39.5202 13.351L39.5202 13.351L36.7333 14.4615ZM30.6133 16.3575L27.7613 17.2882L27.7672 17.3063L27.7734 17.3243L30.6133 16.3575ZM28.4293 12.5175L26.1927 14.5169L26.2087 14.5348L26.2249 14.5524L28.4293 12.5175ZM24.9733 10.0935L23.8195 12.8628L23.8311 12.8676L24.9733 10.0935ZM13.6693 9.25353V6.25353H10.6693V9.25353H13.6693ZM13.6693 33.6855H10.6693V36.6855H13.6693V33.6855ZM24.9733 32.8455L23.8311 30.0715L23.8195 30.0763L24.9733 32.8455ZM28.4293 30.4455L26.2095 28.4275L26.208 28.4292L28.4293 30.4455ZM30.6133 26.6055L27.7703 25.6479L27.7673 25.6569L27.7643 25.6659L30.6133 26.6055ZM35.0053 21.4695C35.0053 23.6752 34.6389 25.6293 33.9465 27.367L39.5202 29.5881C40.5238 27.0697 41.0053 24.3519 41.0053 21.4695H35.0053ZM33.9465 27.367C33.241 29.1374 32.2682 30.62 31.036 31.8522L35.2787 36.0949C37.1184 34.2551 38.5297 32.0737 39.5202 29.5881L33.9465 27.367ZM31.036 31.8522C29.8114 33.0768 28.3194 34.0494 26.517 34.757L28.7097 40.342C31.2272 39.3537 33.4312 37.9423 35.2787 36.0949L31.036 31.8522ZM26.517 34.757C24.751 35.4504 22.7294 35.8215 20.4133 35.8215V41.8215C23.3773 41.8215 26.1557 41.3447 28.7097 40.342L26.517 34.757ZM20.4133 35.8215H7.18933V41.8215H20.4133V35.8215ZM10.1893 38.8215V4.11753H4.18933V38.8215H10.1893ZM7.18933 7.11753H20.4133V1.11753H7.18933V7.11753ZM20.4133 7.11753C22.7228 7.11753 24.7381 7.49452 26.4992 8.19896L28.7275 2.6281C26.1686 1.60454 23.3839 1.11753 20.4133 1.11753V7.11753ZM26.517 8.20604C28.3194 8.91365 29.8114 9.88627 31.036 11.1109L35.2787 6.86821C33.4312 5.02079 31.2272 3.60941 28.7097 2.62103L26.517 8.20604ZM31.0471 11.1219C32.2723 12.3343 33.242 13.8042 33.9465 15.5721L39.5202 13.351C38.5287 10.8629 37.1144 8.68478 35.2675 6.85713L31.0471 11.1219ZM33.9465 15.5721C34.6389 17.3097 35.0053 19.2639 35.0053 21.4695H41.0053C41.0053 18.5872 40.5238 15.8693 39.5202 13.351L33.9465 15.5721ZM34.3813 21.4695C34.3813 19.3 34.0899 17.2608 33.4533 15.3907L27.7734 17.3243C28.1608 18.4623 28.3813 19.8311 28.3813 21.4695H34.3813ZM33.4653 15.4269C32.8528 13.5498 31.9223 11.8787 30.6337 10.4827L26.2249 14.5524C26.8563 15.2364 27.3818 16.1252 27.7613 17.2882L33.4653 15.4269ZM30.6659 10.5181C29.4086 9.11159 27.8776 8.04504 26.1156 7.3195L23.8311 12.8676C24.7891 13.262 25.5621 13.8115 26.1927 14.5169L30.6659 10.5181ZM26.1272 7.3243C24.3624 6.58898 22.4409 6.25353 20.4133 6.25353V12.2535C21.7777 12.2535 22.8962 12.4781 23.8195 12.8628L26.1272 7.3243ZM20.4133 6.25353H13.6693V12.2535H20.4133V6.25353ZM10.6693 9.25353V33.6855H16.6693V9.25353H10.6693ZM13.6693 36.6855H20.4133V30.6855H13.6693V36.6855ZM20.4133 36.6855C22.4409 36.6855 24.3624 36.3501 26.1272 35.6148L23.8195 30.0763C22.8963 30.461 21.7777 30.6855 20.4133 30.6855V36.6855ZM26.1156 35.6196C27.8671 34.8983 29.3935 33.8469 30.6507 32.4618L26.208 28.4292C25.5772 29.1242 24.7995 29.6727 23.8311 30.0715L26.1156 35.6196ZM30.6492 32.4636C31.9219 31.0636 32.8491 29.4047 33.4624 27.5451L27.7643 25.6659C27.3855 26.8144 26.8568 27.7155 26.2095 28.4275L30.6492 32.4636ZM33.4564 27.5632C34.0897 25.6831 34.3813 23.6399 34.3813 21.4695H28.3813C28.3813 23.1072 28.161 24.488 27.7703 25.6479L33.4564 27.5632ZM50.185 9.25353V6.25353H47.185V9.25353H50.185ZM50.185 18.8775H47.185V21.8775H50.185V18.8775ZM62.329 18.8775H65.329V15.8775H62.329V18.8775ZM62.329 23.8455V26.8455H65.329V23.8455H62.329ZM50.185 23.8455V20.8455H47.185V23.8455H50.185ZM50.185 33.6615H47.185V36.6615H50.185V33.6615ZM65.593 33.6615H68.593V30.6615H65.593V33.6615ZM65.593 38.8215V41.8215H68.593V38.8215H65.593ZM43.705 38.8215H40.705V41.8215H43.705V38.8215ZM43.705 4.11753V1.11753H40.705V4.11753H43.705ZM65.593 4.11753H68.593V1.11753H65.593V4.11753ZM65.593 9.25353V12.2535H68.593V9.25353H65.593ZM47.185 9.25353V18.8775H53.185V9.25353H47.185ZM50.185 21.8775H62.329V15.8775H50.185V21.8775ZM59.329 18.8775V23.8455H65.329V18.8775H59.329ZM62.329 20.8455H50.185V26.8455H62.329V20.8455ZM47.185 23.8455V33.6615H53.185V23.8455H47.185ZM50.185 36.6615H65.593V30.6615H50.185V36.6615ZM62.593 33.6615V38.8215H68.593V33.6615H62.593ZM65.593 35.8215H43.705V41.8215H65.593V35.8215ZM46.705 38.8215V4.11753H40.705V38.8215H46.705ZM43.705 7.11753H65.593V1.11753H43.705V7.11753ZM62.593 4.11753V9.25353H68.593V4.11753H62.593ZM65.593 6.25353H50.185V12.2535H65.593V6.25353ZM101.05 4.11753L103.832 5.24098L105.497 1.11753H101.05V4.11753ZM87.0343 38.8215V41.8215H89.0581L89.816 39.945L87.0343 38.8215ZM81.2023 38.8215L78.4206 39.945L79.1785 41.8215H81.2023V38.8215ZM67.1863 4.11753V1.11753H62.7393L64.4046 5.24098L67.1863 4.11753ZM73.7383 4.52553L71.904 6.89938L71.904 6.89939L73.7383 4.52553ZM74.5303 5.58153L77.3285 4.49971L77.3188 4.47458L77.3086 4.44964L74.5303 5.58153ZM82.7143 26.7495L79.9162 27.8314L79.9203 27.8419L79.9245 27.8525L82.7143 26.7495ZM83.4823 29.0295L80.5999 29.861L80.6095 29.8944L80.6199 29.9276L83.4823 29.0295ZM84.2023 31.5975L81.2919 32.3251L87.1357 32.2261L84.2023 31.5975ZM84.8263 29.0295L87.7193 29.8237L87.7213 29.8166L87.7232 29.8095L84.8263 29.0295ZM85.5703 26.7495L88.3602 27.8525L88.3655 27.8392L88.3706 27.8258L85.5703 26.7495ZM93.7063 5.58153L96.5066 6.65783L96.524 6.61272L96.5398 6.56708L93.7063 5.58153ZM94.4503 4.57353L92.5882 2.2214L92.5638 2.24077L92.5397 2.26064L94.4503 4.57353ZM98.2686 2.99408L84.2526 37.6981L89.816 39.945L103.832 5.24098L98.2686 2.99408ZM87.0343 35.8215H81.2023V41.8215H87.0343V35.8215ZM83.984 37.6981L69.968 2.99408L64.4046 5.24098L78.4206 39.945L83.984 37.6981ZM67.1863 7.11753H72.3703V1.11753H67.1863V7.11753ZM72.3703 7.11753C72.4098 7.11753 72.3692 7.12252 72.2749 7.09439C72.1741 7.06432 72.0399 7.00439 71.904 6.89938L75.5727 2.15168C74.5721 1.37852 73.4195 1.11753 72.3703 1.11753V7.11753ZM71.904 6.89939C71.8689 6.87225 71.832 6.83578 71.8003 6.79353C71.7692 6.75197 71.7552 6.72113 71.7521 6.71342L77.3086 4.44964C76.9431 3.55246 76.364 2.76318 75.5727 2.15168L71.904 6.89939ZM71.7322 6.66336L79.9162 27.8314L85.5125 25.6677L77.3285 4.49971L71.7322 6.66336ZM79.9245 27.8525C80.156 28.4381 80.382 29.1059 80.5999 29.861L86.3648 28.1981C86.1026 27.2892 85.8167 26.437 85.5042 25.6466L79.9245 27.8525ZM80.6199 29.9276C80.8569 30.683 81.0811 31.4819 81.2919 32.3251L87.1128 30.8699C86.8756 29.9212 86.6198 29.0081 86.3448 28.1315L80.6199 29.9276ZM87.1357 32.2261C87.3168 31.3812 87.5115 30.5806 87.7193 29.8237L81.9334 28.2354C81.6931 29.1105 81.4719 30.0219 81.2689 30.9689L87.1357 32.2261ZM87.7232 29.8095C87.9223 29.0697 88.1361 28.4194 88.3602 27.8525L82.7805 25.6466C82.4606 26.4556 82.1783 27.3253 81.9295 28.2496L87.7232 29.8095ZM88.3706 27.8258L96.5066 6.65783L90.9061 4.50523L82.7701 25.6732L88.3706 27.8258ZM96.5398 6.56708C96.4508 6.82301 96.3211 6.91938 96.361 6.88642L92.5397 2.26064C91.8436 2.83568 91.2179 3.60405 90.8728 4.59598L96.5398 6.56708ZM96.3124 6.92567C96.2278 6.9927 96.1257 7.04791 96.0203 7.08246C95.9185 7.11579 95.8517 7.11753 95.8423 7.11753V1.11753C94.7017 1.11753 93.5612 1.45111 92.5882 2.2214L96.3124 6.92567ZM95.8423 7.11753H101.05V1.11753H95.8423V7.11753ZM111.122 9.25353V6.25353H108.122V9.25353H111.122ZM111.122 18.8775H108.122V21.8775H111.122V18.8775ZM123.266 18.8775H126.266V15.8775H123.266V18.8775ZM123.266 23.8455V26.8455H126.266V23.8455H123.266ZM111.122 23.8455V20.8455H108.122V23.8455H111.122ZM111.122 33.6615H108.122V36.6615H111.122V33.6615ZM126.53 33.6615H129.53V30.6615H126.53V33.6615ZM126.53 38.8215V41.8215H129.53V38.8215H126.53ZM104.642 38.8215H101.642V41.8215H104.642V38.8215ZM104.642 4.11753V1.11753H101.642V4.11753H104.642ZM126.53 4.11753H129.53V1.11753H126.53V4.11753ZM126.53 9.25353V12.2535H129.53V9.25353H126.53ZM108.122 9.25353V18.8775H114.122V9.25353H108.122ZM111.122 21.8775H123.266V15.8775H111.122V21.8775ZM120.266 18.8775V23.8455H126.266V18.8775H120.266ZM123.266 20.8455H111.122V26.8455H123.266V20.8455ZM108.122 23.8455V33.6615H114.122V23.8455H108.122ZM111.122 36.6615H126.53V30.6615H111.122V36.6615ZM123.53 33.6615V38.8215H129.53V33.6615H123.53ZM126.53 35.8215H104.642V41.8215H126.53V35.8215ZM107.642 38.8215V4.11753H101.642V38.8215H107.642ZM104.642 7.11753H126.53V1.11753H104.642V7.11753ZM123.53 4.11753V9.25353H129.53V4.11753H123.53ZM126.53 6.25353H111.122V12.2535H126.53V6.25353ZM152.58 33.4935H155.58V30.4935H152.58V33.4935ZM152.58 38.8215V41.8215H155.58V38.8215H152.58ZM132.252 38.8215H129.252V41.8215H132.252V38.8215ZM132.252 4.11753V1.11753H129.252V4.11753H132.252ZM138.708 4.11753H141.708V1.11753H138.708V4.11753ZM138.708 33.4935H135.708V36.4935H138.708V33.4935ZM149.58 33.4935V38.8215H155.58V33.4935H149.58ZM152.58 35.8215H132.252V41.8215H152.58V35.8215ZM135.252 38.8215V4.11753H129.252V38.8215H135.252ZM132.252 7.11753H138.708V1.11753H132.252V7.11753ZM135.708 4.11753V33.4935H141.708V4.11753H135.708ZM138.708 36.4935H152.58V30.4935H138.708V36.4935ZM187.795 28.5495L184.999 27.4602L184.995 27.4712L187.795 28.5495ZM184.243 34.1655L186.396 36.254L186.396 36.254L184.243 34.1655ZM178.699 37.8855L179.83 40.6638L179.839 40.6602L179.848 40.6566L178.699 37.8855ZM164.323 37.8855L163.173 40.6566L163.182 40.6602L163.191 40.6638L164.323 37.8855ZM158.755 34.1655L156.601 36.254L156.606 36.2595L156.612 36.2651L158.755 34.1655ZM155.179 28.5495L152.383 29.6389L152.386 29.6458L155.179 28.5495ZM155.179 14.4135L157.971 15.5099L157.974 15.5029L155.179 14.4135ZM158.755 8.77353L156.612 6.67397L156.606 6.67952L156.601 6.68509L158.755 8.77353ZM164.323 5.07753L165.454 7.85581L165.463 7.85222L165.472 7.84858L164.323 5.07753ZM176.467 4.35753L175.69 7.25524L175.704 7.25899L175.718 7.2626L176.467 4.35753ZM180.739 6.08553L179.233 8.68035L179.245 8.68734L179.257 8.69421L180.739 6.08553ZM184.219 8.79753L182.049 10.8697L182.065 10.8863L182.081 10.9026L184.219 8.79753ZM188.491 16.6215L185.573 17.3205L185.577 17.3348L185.58 17.3491L188.491 16.6215ZM181.699 16.3575L178.856 17.3152L178.859 17.3243L181.699 16.3575ZM179.515 12.4935L177.278 14.4929L177.278 14.4929L179.515 12.4935ZM176.059 10.0695L174.905 12.8388L174.916 12.8436L176.059 10.0695ZM166.915 10.0695L165.772 7.29547L165.761 7.3003L166.915 10.0695ZM163.459 12.4935L161.239 10.4755L161.23 10.4848L161.222 10.4941L163.459 12.4935ZM161.275 16.3575L164.115 17.3243L164.118 17.3152L161.275 16.3575ZM161.275 26.6055L158.432 27.5632L158.435 27.5723L161.275 26.6055ZM163.459 30.4455L161.222 32.4449L161.238 32.4628L161.254 32.4804L163.459 30.4455ZM166.915 32.8455L165.761 35.6148L165.772 35.6196L166.915 32.8455ZM176.059 32.8455L174.916 30.0715L174.905 30.0763L176.059 32.8455ZM179.515 30.4455L181.736 32.4619L181.744 32.4534L181.751 32.4449L179.515 30.4455ZM181.699 26.6055L184.539 27.5723L184.542 27.5632L181.699 26.6055ZM186.067 21.4695C186.067 23.6743 185.7 25.6613 184.999 27.4602L190.59 29.6389C191.585 27.0858 192.067 24.3528 192.067 21.4695H186.067ZM184.995 27.4712C184.301 29.2733 183.33 30.7971 182.089 32.0771L186.396 36.254C188.227 34.366 189.624 32.1458 190.594 29.6279L184.995 27.4712ZM182.089 32.0771C180.854 33.3501 179.354 34.3657 177.549 35.1145L179.848 40.6566C182.363 39.6134 184.559 38.1489 186.396 36.254L182.089 32.0771ZM177.567 35.1073C175.81 35.8228 173.801 36.2055 171.499 36.2055V42.2055C174.476 42.2055 177.267 41.7083 179.83 40.6638L177.567 35.1073ZM171.499 36.2055C169.214 36.2055 167.213 35.8236 165.454 35.1073L163.191 40.6638C165.752 41.7074 168.535 42.2055 171.499 42.2055V36.2055ZM165.472 35.1145C163.664 34.3646 162.152 33.346 160.897 32.066L156.612 36.2651C158.462 38.1531 160.661 39.6145 163.173 40.6566L165.472 35.1145ZM160.908 32.0771C159.663 30.7929 158.682 29.2629 157.971 27.4532L152.386 29.6458C153.372 32.1562 154.774 34.3702 156.601 36.254L160.908 32.0771ZM157.974 27.4602C157.273 25.6613 156.907 23.6743 156.907 21.4695H150.907C150.907 24.3528 151.388 27.0858 152.383 29.6389L157.974 27.4602ZM156.907 21.4695C156.907 19.2645 157.273 17.2884 157.971 15.5098L152.386 13.3172C151.388 15.8587 150.907 18.5865 150.907 21.4695H156.907ZM157.974 15.5029C158.685 13.6772 159.667 12.1424 160.908 10.862L156.601 6.68509C154.771 8.57262 153.368 10.7979 152.383 13.3242L157.974 15.5029ZM160.897 10.8731C162.148 9.59713 163.654 8.58922 165.454 7.85581L163.191 2.29926C160.671 3.32584 158.466 4.78194 156.612 6.67397L160.897 10.8731ZM165.472 7.84858C167.226 7.12112 169.221 6.73353 171.499 6.73353V0.733533C168.528 0.733533 165.739 1.24194 163.173 2.30648L165.472 7.84858ZM171.499 6.73353C173.021 6.73353 174.414 6.91326 175.69 7.25524L177.243 1.45982C175.415 0.969804 173.496 0.733533 171.499 0.733533V6.73353ZM175.718 7.2626C177.023 7.59897 178.19 8.07506 179.233 8.68035L182.244 3.49072C180.695 2.592 179.014 1.91609 177.215 1.45247L175.718 7.2626ZM179.257 8.69421C180.3 9.28664 181.228 10.0103 182.049 10.8697L186.388 6.72534C185.161 5.4408 183.769 4.35643 182.22 3.47685L179.257 8.69421ZM182.081 10.9026C182.925 11.7598 183.64 12.7207 184.229 13.7928L189.489 10.9062C188.637 9.35441 187.592 7.94725 186.356 6.69247L182.081 10.9026ZM184.229 13.7928C184.813 14.858 185.264 16.0299 185.573 17.3205L191.408 15.9226C190.981 14.1411 190.344 12.4651 189.489 10.9062L184.229 13.7928ZM185.58 17.3491C185.901 18.6309 186.067 20.0015 186.067 21.4695H192.067C192.067 19.5456 191.849 17.6841 191.401 15.8939L185.58 17.3491ZM185.467 21.4695C185.467 19.3 185.175 17.2608 184.539 15.3907L178.859 17.3243C179.246 18.4623 179.467 19.8311 179.467 21.4695H185.467ZM184.542 15.3999C183.917 13.546 182.999 11.8903 181.751 10.4941L177.278 14.4929C177.918 15.2087 178.456 16.1291 178.856 17.3152L184.542 15.3999ZM181.751 10.4941C180.494 9.08759 178.963 8.02104 177.201 7.2955L174.916 12.8436C175.874 13.238 176.647 13.7875 177.278 14.4929L181.751 10.4941ZM177.212 7.3003C175.448 6.56498 173.526 6.22953 171.499 6.22953V12.2295C172.863 12.2295 173.982 12.4541 174.905 12.8388L177.212 7.3003ZM171.499 6.22953C169.47 6.22953 167.546 6.56524 165.772 7.2955L168.057 12.8436C169.003 12.4538 170.135 12.2295 171.499 12.2295V6.22953ZM165.761 7.3003C164.019 8.02598 162.501 9.08725 161.239 10.4755L165.678 14.5116C166.336 13.7878 167.122 13.2331 168.068 12.8388L165.761 7.3003ZM161.222 10.4941C159.974 11.8903 159.056 13.546 158.432 15.3999L164.118 17.3152C164.517 16.1291 165.055 15.2087 165.695 14.4929L161.222 10.4941ZM158.435 15.3907C157.798 17.2608 157.507 19.3 157.507 21.4695H163.507C163.507 19.8311 163.727 18.4623 164.115 17.3243L158.435 15.3907ZM157.507 21.4695C157.507 23.6399 157.798 25.6831 158.432 27.5632L164.118 25.6479C163.727 24.488 163.507 23.1072 163.507 21.4695H157.507ZM158.435 27.5723C159.061 29.4112 159.979 31.0542 161.222 32.4449L165.695 28.4461C165.05 27.7248 164.513 26.8079 164.115 25.6387L158.435 27.5723ZM161.254 32.4804C162.516 33.8472 164.03 34.8934 165.761 35.6148L168.068 30.0763C167.112 29.6776 166.321 29.1238 165.663 28.4107L161.254 32.4804ZM165.772 35.6196C167.546 36.3498 169.47 36.6855 171.499 36.6855V30.6855C170.135 30.6855 169.003 30.4612 168.057 30.0715L165.772 35.6196ZM171.499 36.6855C173.526 36.6855 175.448 36.3501 177.212 35.6148L174.905 30.0763C173.982 30.461 172.863 30.6855 171.499 30.6855V36.6855ZM177.201 35.6196C178.952 34.8983 180.479 33.8469 181.736 32.4619L177.293 28.4292C176.662 29.1242 175.885 29.6727 174.916 30.0715L177.201 35.6196ZM181.751 32.4449C182.994 31.0542 183.913 29.4112 184.539 27.5723L178.859 25.6387C178.461 26.8079 177.923 27.7248 177.278 28.4461L181.751 32.4449ZM184.542 27.5632C185.175 25.6831 185.467 23.6399 185.467 21.4695H179.467C179.467 23.1072 179.246 24.488 178.856 25.6479L184.542 27.5632ZM209.112 21.1335L210.045 23.9847L210.069 23.9771L210.092 23.9691L209.112 21.1335ZM211.296 19.8615L213.356 22.0426L213.358 22.0409L211.296 19.8615ZM212.616 17.8455L215.432 18.88L215.436 18.8708L215.439 18.8617L212.616 17.8455ZM212.616 12.6615L209.815 13.7345L209.815 13.7345L212.616 12.6615ZM209.136 9.54153L208.203 12.3927L208.227 12.4004L208.25 12.4077L209.136 9.54153ZM201.192 9.10953V6.10953H198.192V9.10953H201.192ZM201.192 21.5655H198.192V24.5655H201.192V21.5655ZM218.688 10.7175L215.892 11.8033L215.897 11.8175L215.903 11.8317L218.688 10.7175ZM218.664 19.8135L221.447 20.9332L221.452 20.9222L218.664 19.8135ZM216.144 23.4135L218.151 25.6434L218.151 25.6434L216.144 23.4135ZM211.92 25.7655L210.98 22.9168L210.972 22.9195L211.92 25.7655ZM201.192 26.6055V23.6055H198.192V26.6055H201.192ZM201.192 38.8215V41.8215H204.192V38.8215H201.192ZM194.736 38.8215H191.736V41.8215H194.736V38.8215ZM194.736 4.11753V1.11753H191.736V4.11753H194.736ZM206.016 24.5655C207.433 24.5655 208.794 24.3944 210.045 23.9847L208.179 18.2823C207.671 18.4487 206.967 18.5655 206.016 18.5655V24.5655ZM210.092 23.9691C211.305 23.5502 212.421 22.9257 213.356 22.0426L209.236 17.6805C209.019 17.8854 208.68 18.1089 208.133 18.298L210.092 23.9691ZM213.358 22.0409C214.295 21.1545 214.989 20.0875 215.432 18.88L209.8 16.8111C209.668 17.1715 209.482 17.4485 209.235 17.6821L213.358 22.0409ZM215.439 18.8617C215.86 17.6914 216.048 16.4535 216.048 15.1815H210.048C210.048 15.8616 209.948 16.3996 209.794 16.8294L215.439 18.8617ZM216.048 15.1815C216.048 13.9419 215.855 12.7311 215.418 11.5886L209.815 13.7345C209.953 14.096 210.048 14.5651 210.048 15.1815H216.048ZM215.418 11.5886C214.969 10.4159 214.277 9.38218 213.347 8.53007L209.293 12.953C209.515 13.1569 209.688 13.4032 209.815 13.7345L215.418 11.5886ZM213.347 8.53007C212.391 7.65307 211.251 7.05519 210.022 6.67532L208.25 12.4077C208.781 12.5719 209.098 12.774 209.293 12.953L213.347 8.53007ZM210.069 6.69034C208.814 6.27953 207.445 6.10953 206.016 6.10953V12.1095C206.988 12.1095 207.698 12.2275 208.203 12.3927L210.069 6.69034ZM206.016 6.10953H201.192V12.1095H206.016V6.10953ZM198.192 9.10953V21.5655H204.192V9.10953H198.192ZM201.192 24.5655H206.016V18.5655H201.192V24.5655ZM206.016 7.11753C208.114 7.11753 209.798 7.36491 211.124 7.79018L212.956 2.07689C210.89 1.41415 208.559 1.11753 206.016 1.11753V7.11753ZM211.124 7.79018C212.505 8.23332 213.518 8.81115 214.253 9.46114L218.227 4.96592C216.754 3.66392 214.967 2.72174 212.956 2.07689L211.124 7.79018ZM214.253 9.46114C215.002 10.1233 215.539 10.8943 215.892 11.8033L221.485 9.63178C220.782 7.82079 219.686 6.25573 218.227 4.96592L214.253 9.46114ZM215.903 11.8317C216.291 12.8025 216.504 13.9077 216.504 15.1815H222.504C222.504 13.2233 222.173 11.3526 221.474 9.60336L215.903 11.8317ZM216.504 15.1815C216.504 16.5231 216.282 17.686 215.877 18.7048L221.452 20.9222C222.167 19.125 222.504 17.2 222.504 15.1815H216.504ZM215.881 18.6938C215.492 19.6596 214.919 20.4803 214.137 21.1837L218.151 25.6434C219.61 24.3307 220.716 22.7515 221.447 20.9332L215.881 18.6938ZM214.137 21.1836C213.378 21.8672 212.353 22.4633 210.98 22.9168L212.861 28.6143C214.879 27.9478 216.671 26.9759 218.151 25.6434L214.137 21.1836ZM210.972 22.9195C209.668 23.354 208.034 23.6055 206.016 23.6055V29.6055C208.511 29.6055 210.812 29.2971 212.869 28.6116L210.972 22.9195ZM206.016 23.6055H201.192V29.6055H206.016V23.6055ZM198.192 26.6055V38.8215H204.192V26.6055H198.192ZM201.192 35.8215H194.736V41.8215H201.192V35.8215ZM197.736 38.8215V4.11753H191.736V38.8215H197.736ZM194.736 7.11753H206.016V1.11753H194.736V7.11753ZM230.935 9.25353V6.25353H227.935V9.25353H230.935ZM230.935 18.8775H227.935V21.8775H230.935V18.8775ZM243.079 18.8775H246.079V15.8775H243.079V18.8775ZM243.079 23.8455V26.8455H246.079V23.8455H243.079ZM230.935 23.8455V20.8455H227.935V23.8455H230.935ZM230.935 33.6615H227.935V36.6615H230.935V33.6615ZM246.343 33.6615H249.343V30.6615H246.343V33.6615ZM246.343 38.8215V41.8215H249.343V38.8215H246.343ZM224.455 38.8215H221.455V41.8215H224.455V38.8215ZM224.455 4.11753V1.11753H221.455V4.11753H224.455ZM246.343 4.11753H249.343V1.11753H246.343V4.11753ZM246.343 9.25353V12.2535H249.343V9.25353H246.343ZM227.935 9.25353V18.8775H233.935V9.25353H227.935ZM230.935 21.8775H243.079V15.8775H230.935V21.8775ZM240.079 18.8775V23.8455H246.079V18.8775H240.079ZM243.079 20.8455H230.935V26.8455H243.079V20.8455ZM227.935 23.8455V33.6615H233.935V23.8455H227.935ZM230.935 36.6615H246.343V30.6615H230.935V36.6615ZM243.343 33.6615V38.8215H249.343V33.6615H243.343ZM246.343 35.8215H224.455V41.8215H246.343V35.8215ZM227.455 38.8215V4.11753H221.455V38.8215H227.455ZM224.455 7.11753H246.343V1.11753H224.455V7.11753ZM243.343 4.11753V9.25353H249.343V4.11753H243.343ZM246.343 6.25353H230.935V12.2535H246.343V6.25353ZM265.72 20.1735L264.772 17.3275L264.764 17.33L264.756 17.3326L265.72 20.1735ZM267.952 18.9255L269.98 21.137L269.982 21.1345L267.952 18.9255ZM267.952 10.5255L266.051 12.846L266.059 12.8524L266.067 12.8588L267.952 10.5255ZM258.52 9.10953V6.10953H255.52V9.10953H258.52ZM258.52 20.6295H255.52V23.6295H258.52V20.6295ZM279.16 38.8215V41.8215H284.818L281.644 37.1382L279.16 38.8215ZM270.928 37.5255L273.53 36.0319L273.485 35.954L273.436 35.879L270.928 37.5255ZM263.632 26.4135L261.121 28.0553L261.125 28.0601L263.632 26.4135ZM262.72 25.5255L261.275 28.1542L261.301 28.1689L261.328 28.183L262.72 25.5255ZM258.52 25.2615V22.2615H255.52V25.2615H258.52ZM258.52 38.8215V41.8215H261.52V38.8215H258.52ZM252.064 38.8215H249.064V41.8215H252.064V38.8215ZM252.064 4.11753V1.11753H249.064V4.11753H252.064ZM268.696 4.86153L267.847 7.73875L267.863 7.74354L267.879 7.74815L268.696 4.86153ZM272.848 6.90153L270.945 9.22032L270.953 9.22722L270.962 9.23407L272.848 6.90153ZM275.248 10.0695L272.478 11.2208L272.483 11.2337L275.248 10.0695ZM275.488 17.4135L272.647 16.4517L272.64 16.4714L272.634 16.4912L275.488 17.4135ZM274 20.2455L271.627 18.4099L271.617 18.424L271.606 18.4383L274 20.2455ZM271.6 22.4775L269.936 19.9814L269.927 19.9879L269.917 19.9944L271.6 22.4775ZM268.36 23.9895L267.491 21.1181L260.859 23.1253L266.861 26.5881L268.36 23.9895ZM269.512 24.8535L267.441 27.0236L267.467 27.0488L267.494 27.0734L269.512 24.8535ZM270.472 26.0055L267.949 27.6278L267.969 27.6586L267.989 27.6889L270.472 26.0055ZM262.552 23.6295C264.007 23.6295 265.404 23.4489 266.684 23.0145L264.756 17.3326C264.245 17.5061 263.529 17.6295 262.552 17.6295V23.6295ZM266.669 23.0196C267.891 22.6122 269.03 22.0077 269.98 21.137L265.925 16.7141C265.723 16.8994 265.373 17.1269 264.772 17.3275L266.669 23.0196ZM269.982 21.1345C270.904 20.2871 271.609 19.2675 272.066 18.0987L266.479 15.9123C266.36 16.2156 266.184 16.476 265.922 16.7165L269.982 21.1345ZM272.066 18.0987C272.505 16.977 272.704 15.7933 272.704 14.5815H266.704C266.704 15.1298 266.616 15.562 266.479 15.9123L272.066 18.0987ZM272.704 14.5815C272.704 12.0895 271.836 9.80697 269.838 8.19231L266.067 12.8588C266.405 13.1321 266.704 13.5535 266.704 14.5815H272.704ZM269.854 8.2051C267.926 6.62571 265.336 6.10953 262.648 6.10953V12.1095C264.729 12.1095 265.674 12.5374 266.051 12.846L269.854 8.2051ZM262.648 6.10953H258.52V12.1095H262.648V6.10953ZM255.52 9.10953V20.6295H261.52V9.10953H255.52ZM258.52 23.6295H262.552V17.6295H258.52V23.6295ZM279.16 35.8215H273.328V41.8215H279.16V35.8215ZM273.328 35.8215C273.168 35.8215 273.203 35.7917 273.326 35.8578C273.384 35.8891 273.437 35.9293 273.479 35.9712C273.519 36.0118 273.534 36.0382 273.53 36.0319L268.327 39.0191C269.424 40.9309 271.291 41.8215 273.328 41.8215V35.8215ZM273.436 35.879L266.14 24.767L261.125 28.0601L268.421 39.1721L273.436 35.879ZM266.143 24.7718C265.675 24.0563 265.021 23.3441 264.112 22.868L261.328 28.183C261.091 28.059 261.045 27.9388 261.121 28.0553L266.143 24.7718ZM264.166 22.8969C263.184 22.3569 262.097 22.2615 261.28 22.2615V28.2615C261.372 28.2615 261.443 28.2647 261.495 28.2688C261.548 28.2729 261.574 28.2774 261.579 28.2784C261.585 28.2794 261.559 28.2751 261.51 28.2589C261.461 28.2428 261.378 28.2112 261.275 28.1542L264.166 22.8969ZM261.28 22.2615H258.52V28.2615H261.28V22.2615ZM255.52 25.2615V38.8215H261.52V25.2615H255.52ZM258.52 35.8215H252.064V41.8215H258.52V35.8215ZM255.064 38.8215V4.11753H249.064V38.8215H255.064ZM252.064 7.11753H262.648V1.11753H252.064V7.11753ZM262.648 7.11753C264.804 7.11753 266.519 7.3466 267.847 7.73875L269.546 1.98431C267.514 1.38446 265.196 1.11753 262.648 1.11753V7.11753ZM267.879 7.74815C269.282 8.14503 270.266 8.66305 270.945 9.22032L274.752 4.58275C273.287 3.38001 271.503 2.53804 269.513 1.97491L267.879 7.74815ZM270.962 9.23407C271.681 9.81589 272.167 10.4728 272.478 11.2208L278.019 8.91824C277.306 7.2023 276.192 5.74717 274.735 4.569L270.962 9.23407ZM272.483 11.2337C272.823 12.0408 273.016 12.9831 273.016 14.1015H279.016C279.016 12.276 278.697 10.5303 278.013 8.90536L272.483 11.2337ZM273.016 14.1015C273.016 14.9634 272.887 15.7408 272.647 16.4517L278.33 18.3753C278.793 17.0063 279.016 15.5757 279.016 14.1015H273.016ZM272.634 16.4912C272.402 17.2078 272.067 17.8416 271.627 18.4099L276.373 22.0811C277.246 20.9535 277.903 19.6993 278.343 18.3358L272.634 16.4912ZM271.606 18.4383C271.186 18.9951 270.64 19.5123 269.936 19.9814L273.264 24.9737C274.481 24.1628 275.535 23.192 276.395 22.0528L271.606 18.4383ZM269.917 19.9944C269.25 20.4465 268.45 20.8279 267.491 21.1181L269.229 26.8609C270.702 26.4152 272.063 25.7885 273.284 24.9607L269.917 19.9944ZM266.861 26.5881C267.067 26.707 267.26 26.8505 267.441 27.0236L271.584 22.6835C271.061 22.1845 270.485 21.7521 269.86 21.391L266.861 26.5881ZM267.494 27.0734C267.631 27.1975 267.786 27.3743 267.949 27.6278L272.996 24.3833C272.583 23.7408 272.098 23.1495 271.53 22.6337L267.494 27.0734ZM267.989 27.6889L276.677 40.5049L281.644 37.1382L272.956 24.3222L267.989 27.6889Z" fill="#58C376"/>
</g>
<defs>
<filter id="filter0_d" x="0.189331" y="0.733643" width="288.629" height="49.472" filterUnits="userSpaceOnUse" color-interpolation-filters="sRGB">
<feFlood flood-opacity="0" result="BackgroundImageFix"/>
<feColorMatrix in="SourceAlpha" type="matrix" values="0 0 0 0 0 0 0 0 0 0 0 0 0 0 0 0 0 0 127 0"/>
<feOffset dy="4"/>
<feGaussianBlur stdDeviation="2"/>
<feColorMatrix type="matrix" values="0 0 0 0 0 0 0 0 0 0 0 0 0 0 0 0 0 0 0.25 0"/>
<feBlend mode="normal" in2="BackgroundImageFix" result="effect1_dropShadow"/>
<feBlend mode="normal" in="SourceGraphic" in2="effect1_dropShadow" result="shape"/>
</filter>
</defs>
</svg>
