<svg width="202" height="480" viewBox="0 0 202 480" fill="none" xmlns="http://www.w3.org/2000/svg">
<g id="Group 12">
<g id="SLING">
<g id="BOARD">
<rect id="Rectangle 2" x="4.76404" y="376.735" width="136" height="136" rx="20" transform="rotate(-44.0515 4.76404 376.735)" fill="#C4C4C4" stroke="black" stroke-width="4"/>
<rect id="Rectangle 1" x="9.0061" y="376.806" width="130" height="130" rx="16" transform="rotate(-44.0515 9.0061 376.806)" fill="#E3C214"/>
<g id="AVAILABLE">
<path d="M46.7199 377.442L43.8914 370.497C43.8076 370.291 43.7191 370.052 43.6261 369.782C43.533 369.504 43.4436 369.209 43.3578 368.899C43.2018 369.55 43.0398 370.093 42.8718 370.528L40.301 377.561L46.7199 377.442ZM51.6847 383.736L49.8851 383.769C49.6771 383.773 49.5082 383.724 49.3783 383.622C49.2484 383.521 49.15 383.39 49.083 383.232L47.3987 379.11L39.6841 379.252L38.1529 383.433C38.1075 383.578 38.0179 383.708 37.884 383.822C37.7501 383.937 37.5831 383.996 37.3832 383.999L35.5835 384.033L42.1413 366.713L44.4929 366.669L51.6847 383.736ZM66.3183 366.267L59.6285 383.589L57.5409 383.628L50.2171 366.564L52.0767 366.53C52.2847 366.526 52.4536 366.575 52.5835 366.676C52.7134 366.778 52.8119 366.908 52.8788 367.067L57.9496 379.108C58.0586 379.378 58.1641 379.672 58.2659 379.99C58.3758 380.308 58.474 380.642 58.5605 380.993C58.634 380.639 58.7118 380.302 58.7938 379.98C58.8759 379.659 58.9665 379.361 59.0654 379.087L63.677 366.868C63.7224 366.731 63.8121 366.605 63.946 366.491C64.0878 366.368 64.2587 366.305 64.4586 366.301L66.3183 366.267ZM76.6211 376.891L73.7925 369.946C73.7087 369.739 73.6203 369.501 73.5273 369.231C73.4342 368.952 73.3447 368.658 73.259 368.347C73.103 368.998 72.9409 369.542 72.7729 369.977L70.2021 377.009L76.6211 376.891ZM81.5859 383.184L79.7862 383.218C79.5783 383.222 79.4093 383.173 79.2794 383.071C79.1495 382.969 79.0511 382.839 78.9842 382.68L77.2999 378.559L69.5852 378.701L68.054 382.882C68.0087 383.027 67.9191 383.156 67.7852 383.271C67.6513 383.385 67.4843 383.444 67.2843 383.448L65.4847 383.481L72.0425 366.162L74.3941 366.118L81.5859 383.184ZM86.1753 383.1L83.8477 383.143L83.5307 365.95L85.8583 365.907L86.1753 383.1ZM100.291 380.883L100.327 382.839L90.5731 383.019L90.2561 365.826L92.5717 365.783L92.8527 381.02L100.291 380.883ZM111.912 376.24L109.083 369.295C109 369.089 108.911 368.85 108.818 368.58C108.725 368.302 108.636 368.007 108.55 367.697C108.394 368.348 108.232 368.891 108.064 369.326L105.493 376.359L111.912 376.24ZM116.877 382.534L115.077 382.567C114.869 382.571 114.7 382.522 114.57 382.42C114.44 382.319 114.342 382.188 114.275 382.03L112.591 377.908L104.876 378.05L103.345 382.231C103.3 382.376 103.21 382.506 103.076 382.62C102.942 382.735 102.775 382.794 102.575 382.797L100.776 382.831L107.333 365.511L109.685 365.467L116.877 382.534ZM125.14 380.533C125.803 380.521 126.374 380.434 126.851 380.274C127.328 380.113 127.716 379.894 128.015 379.616C128.322 379.33 128.544 378.998 128.681 378.62C128.818 378.233 128.882 377.812 128.874 377.356C128.857 376.468 128.528 375.774 127.887 375.274C127.246 374.765 126.293 374.523 125.029 374.546L121.31 374.615L121.42 380.602L125.14 380.533ZM121.171 367.092L121.279 372.959L124.351 372.902C125.007 372.89 125.573 372.808 126.05 372.655C126.536 372.502 126.932 372.295 127.239 372.033C127.554 371.771 127.785 371.459 127.93 371.096C128.075 370.725 128.144 370.324 128.136 369.892C128.117 368.876 127.8 368.142 127.183 367.689C126.566 367.229 125.618 367.01 124.339 367.034L121.171 367.092ZM124.305 365.198C125.36 365.178 126.27 365.266 127.034 365.46C127.806 365.653 128.439 365.938 128.934 366.313C129.437 366.688 129.81 367.153 130.052 367.708C130.294 368.256 130.422 368.878 130.434 369.574C130.442 369.998 130.382 370.407 130.253 370.801C130.132 371.188 129.943 371.551 129.685 371.892C129.427 372.233 129.097 372.543 128.694 372.822C128.299 373.094 127.831 373.318 127.29 373.496C128.558 373.713 129.515 374.147 130.159 374.8C130.811 375.444 131.147 376.302 131.166 377.374C131.18 378.101 131.056 378.768 130.795 379.373C130.542 379.977 130.16 380.501 129.648 380.942C129.144 381.383 128.518 381.731 127.771 381.985C127.023 382.231 126.169 382.362 125.21 382.38L119.139 382.492L118.822 365.299L124.305 365.198ZM144.37 380.071L144.406 382.026L134.652 382.206L134.335 365.013L136.65 364.97L136.931 380.208L144.37 380.071ZM157.549 379.888L157.572 381.783L146.978 381.979L146.661 364.786L157.255 364.59L157.29 366.486L149.023 366.638L149.128 372.35L155.823 372.226L155.857 374.05L149.162 374.173L149.27 380.04L157.549 379.888Z" fill="black"/>
<path d="M46.7199 377.442L46.7383 378.442L48.1959 378.415L47.646 377.065L46.7199 377.442ZM43.8914 370.497L42.9648 370.873L42.9652 370.874L43.8914 370.497ZM43.6261 369.782L42.6778 370.099L42.6805 370.107L43.6261 369.782ZM43.3578 368.899L44.3217 368.633L42.3854 368.666L43.3578 368.899ZM42.8718 370.528L41.9389 370.168L41.9356 370.176L41.9326 370.185L42.8718 370.528ZM40.301 377.561L39.3618 377.217L38.8609 378.587L40.3194 378.56L40.301 377.561ZM51.6847 383.736L51.7032 384.736L53.1798 384.708L52.6063 383.347L51.6847 383.736ZM49.3783 383.622L48.7621 384.41L48.7621 384.41L49.3783 383.622ZM49.083 383.232L48.1573 383.61L48.1615 383.62L49.083 383.232ZM47.3987 379.11L48.3244 378.732L48.0653 378.098L47.3803 378.11L47.3987 379.11ZM39.6841 379.252L39.6656 378.252L38.9806 378.265L38.745 378.908L39.6841 379.252ZM38.1529 383.433L37.2139 383.089L37.2056 383.112L37.1985 383.135L38.1529 383.433ZM37.884 383.822L38.5338 384.582L38.5338 384.582L37.884 383.822ZM35.5835 384.033L34.6483 383.679L34.1253 385.06L35.6019 385.033L35.5835 384.033ZM42.1413 366.713L42.1229 365.713L41.4459 365.725L41.2061 366.359L42.1413 366.713ZM44.4929 366.669L45.4144 366.281L45.1515 365.657L44.4745 365.67L44.4929 366.669ZM47.646 377.065L44.8175 370.12L42.9652 370.874L45.7937 377.819L47.646 377.065ZM44.8179 370.121C44.7425 369.935 44.6604 369.714 44.5718 369.457L42.6805 370.107C42.7779 370.39 42.8726 370.646 42.9648 370.873L44.8179 370.121ZM44.5744 369.465C44.4875 369.205 44.4032 368.928 44.3217 368.633L42.3939 369.165C42.4839 369.491 42.5785 369.803 42.6778 370.099L44.5744 369.465ZM42.3854 368.666C42.2356 369.29 42.0857 369.788 41.9389 370.168L43.8047 370.888C43.9939 370.398 44.1679 369.809 44.3303 369.132L42.3854 368.666ZM41.9326 370.185L39.3618 377.217L41.2402 377.904L43.811 370.871L41.9326 370.185ZM40.3194 378.56L46.7383 378.442L46.7014 376.442L40.2825 376.561L40.3194 378.56ZM51.6663 382.736L49.8666 382.769L49.9035 384.769L51.7032 384.736L51.6663 382.736ZM49.8666 382.769C49.8451 382.77 49.8529 382.767 49.8804 382.775C49.9104 382.783 49.9522 382.802 49.9944 382.835L48.7621 384.41C49.1159 384.687 49.5272 384.776 49.9035 384.769L49.8666 382.769ZM49.9944 382.835C49.9954 382.835 49.9971 382.837 49.9992 382.839C50.0013 382.841 50.0032 382.843 50.0048 382.845C50.0083 382.85 50.0076 382.851 50.0045 382.843L48.1615 383.62C48.2915 383.928 48.492 384.199 48.7621 384.41L49.9944 382.835ZM50.0087 382.853L48.3244 378.732L46.4731 379.488L48.1573 383.61L50.0087 382.853ZM47.3803 378.11L39.6656 378.252L39.7025 380.252L47.4172 380.11L47.3803 378.11ZM38.745 378.908L37.2139 383.089L39.0919 383.777L40.6231 379.596L38.745 378.908ZM37.1985 383.135C37.2071 383.107 37.2188 383.085 37.229 383.071C37.2387 383.057 37.2431 383.055 37.2342 383.062L38.5338 384.582C38.7872 384.366 38.9972 384.083 39.1072 383.732L37.1985 383.135ZM37.2342 383.062C37.261 383.039 37.2931 383.021 37.3247 383.01C37.3547 382.999 37.371 383 37.3647 383L37.4016 384.999C37.8003 384.992 38.1999 384.868 38.5338 384.582L37.2342 383.062ZM37.3647 383L35.565 383.033L35.6019 385.033L37.4016 384.999L37.3647 383ZM36.5187 384.387L43.0765 367.067L41.2061 366.359L34.6483 383.679L36.5187 384.387ZM42.1597 367.713L44.5113 367.669L44.4745 365.67L42.1229 365.713L42.1597 367.713ZM43.5714 367.058L50.7632 384.124L52.6063 383.347L45.4144 366.281L43.5714 367.058ZM66.3183 366.267L67.2512 366.627L67.787 365.24L66.2999 365.267L66.3183 366.267ZM59.6285 383.589L59.647 384.589L60.3192 384.577L60.5614 383.95L59.6285 383.589ZM57.5409 383.628L56.6219 384.022L56.8871 384.64L57.5593 384.628L57.5409 383.628ZM50.2171 366.564L50.1986 365.564L48.7115 365.592L49.2981 366.958L50.2171 366.564ZM52.8788 367.067L53.8004 366.679L53.8003 366.679L52.8788 367.067ZM57.9496 379.108L58.8769 378.733L58.8741 378.726L58.8712 378.719L57.9496 379.108ZM58.2659 379.99L57.3136 380.295L57.317 380.306L57.3208 380.316L58.2659 379.99ZM58.5605 380.993L57.5896 381.232L59.5395 381.196L58.5605 380.993ZM58.7938 379.98L59.7628 380.227L59.7628 380.227L58.7938 379.98ZM59.0654 379.087L58.1297 378.734L58.1249 378.747L59.0654 379.087ZM63.677 366.868L64.6125 367.221L64.6196 367.202L64.6259 367.183L63.677 366.868ZM63.946 366.491L64.5959 367.251L64.6003 367.247L63.946 366.491ZM65.3855 365.907L58.6957 383.229L60.5614 383.95L67.2512 366.627L65.3855 365.907ZM59.6101 382.59L57.5224 382.628L57.5593 384.628L59.647 384.589L59.6101 382.59ZM58.4598 383.233L51.136 366.17L49.2981 366.958L56.6219 384.022L58.4598 383.233ZM50.2355 367.564L52.0952 367.529L52.0583 365.53L50.1986 365.564L50.2355 367.564ZM52.0952 367.529C52.1167 367.529 52.1089 367.532 52.0814 367.524C52.0514 367.515 52.0096 367.497 51.9674 367.464L53.1997 365.889C52.8459 365.612 52.4346 365.523 52.0583 365.53L52.0952 367.529ZM51.9674 367.464C51.9664 367.463 51.9647 367.462 51.9626 367.46C51.9605 367.457 51.9586 367.455 51.957 367.453C51.9535 367.449 51.9542 367.448 51.9573 367.455L53.8003 366.679C53.6703 366.37 53.4698 366.1 53.1997 365.889L51.9674 367.464ZM51.9572 367.455L57.028 379.496L58.8712 378.719L53.8004 366.679L51.9572 367.455ZM57.0223 379.482C57.1209 379.726 57.2181 379.997 57.3136 380.295L59.2183 379.685C59.11 379.347 58.9963 379.029 58.8769 378.733L57.0223 379.482ZM57.3208 380.316C57.4201 380.604 57.5098 380.909 57.5896 381.232L59.5314 380.753C59.4381 380.375 59.3316 380.012 59.2111 379.663L57.3208 380.316ZM59.5395 381.196C59.6102 380.856 59.6847 380.533 59.7628 380.227L57.8249 379.733C57.7388 380.07 57.6577 380.422 57.5814 380.789L59.5395 381.196ZM59.7628 380.227C59.838 379.933 59.9193 379.666 60.0059 379.427L58.1249 378.747C58.0136 379.055 57.9139 379.384 57.8249 379.733L59.7628 380.227ZM60.001 379.44L64.6125 367.221L62.7414 366.515L58.1298 378.734L60.001 379.44ZM64.6259 367.183C64.615 367.216 64.6014 367.239 64.5923 367.252C64.5838 367.264 64.5822 367.263 64.5959 367.251L63.2962 365.731C63.0546 365.937 62.8424 366.208 62.728 366.552L64.6259 367.183ZM64.6003 367.247C64.5831 367.262 64.5577 367.278 64.5272 367.289C64.4977 367.3 64.4783 367.301 64.4771 367.301L64.4402 365.302C64.0232 365.309 63.6229 365.448 63.2918 365.735L64.6003 367.247ZM64.4771 367.301L66.3368 367.267L66.2999 365.267L64.4402 365.302L64.4771 367.301ZM76.6211 376.891L76.6395 377.891L78.0971 377.864L77.5472 376.514L76.6211 376.891ZM73.7925 369.946L72.866 370.322L72.8664 370.323L73.7925 369.946ZM73.5273 369.231L72.579 369.548L72.5817 369.556L73.5273 369.231ZM73.259 368.347L74.2229 368.081L72.2865 368.114L73.259 368.347ZM72.7729 369.977L71.84 369.617L71.8368 369.625L71.8337 369.633L72.7729 369.977ZM70.2021 377.009L69.2629 376.666L68.7621 378.036L70.2206 378.009L70.2021 377.009ZM81.5859 383.184L81.6044 384.184L83.0809 384.157L82.5074 382.796L81.5859 383.184ZM79.2794 383.071L78.6633 383.859L78.6633 383.859L79.2794 383.071ZM78.9842 382.68L78.0584 383.059L78.0627 383.069L78.9842 382.68ZM77.2999 378.559L78.2256 378.18L77.9665 377.546L77.2815 377.559L77.2999 378.559ZM69.5852 378.701L69.5668 377.701L68.8818 377.714L68.6462 378.357L69.5852 378.701ZM68.054 382.882L67.115 382.538L67.1068 382.56L67.0997 382.583L68.054 382.882ZM67.7852 383.271L68.435 384.031L68.435 384.031L67.7852 383.271ZM65.4847 383.481L64.5494 383.127L64.0265 384.508L65.5031 384.481L65.4847 383.481ZM72.0425 366.162L72.024 365.162L71.347 365.174L71.1073 365.807L72.0425 366.162ZM74.3941 366.118L75.3156 365.73L75.0527 365.106L74.3756 365.118L74.3941 366.118ZM77.5472 376.514L74.7187 369.569L72.8664 370.323L75.6949 377.268L77.5472 376.514ZM74.7191 369.57C74.6437 369.384 74.5616 369.163 74.4729 368.905L72.5817 369.556C72.679 369.839 72.7738 370.095 72.866 370.322L74.7191 369.57ZM74.4756 368.913C74.3886 368.653 74.3043 368.376 74.2229 368.081L72.2951 368.614C72.3851 368.94 72.4797 369.251 72.579 369.548L74.4756 368.913ZM72.2865 368.114C72.1368 368.739 71.9868 369.236 71.84 369.617L73.7058 370.337C73.8951 369.847 74.0691 369.258 74.2314 368.581L72.2865 368.114ZM71.8337 369.633L69.2629 376.666L71.1414 377.353L73.7121 370.32L71.8337 369.633ZM70.2206 378.009L76.6395 377.891L76.6026 375.891L70.1837 376.009L70.2206 378.009ZM81.5675 382.185L79.7678 382.218L79.8047 384.218L81.6044 384.184L81.5675 382.185ZM79.7678 382.218C79.7463 382.218 79.754 382.215 79.7816 382.223C79.8116 382.232 79.8534 382.25 79.8956 382.283L78.6633 383.859C79.0171 384.135 79.4284 384.224 79.8047 384.218L79.7678 382.218ZM79.8956 382.283C79.8966 382.284 79.8983 382.286 79.9004 382.288C79.9025 382.29 79.9044 382.292 79.906 382.294C79.9094 382.299 79.9087 382.299 79.9057 382.292L78.0627 383.069C78.1927 383.377 78.3932 383.647 78.6633 383.859L79.8956 382.283ZM79.9099 382.302L78.2256 378.18L76.3742 378.937L78.0585 383.059L79.9099 382.302ZM77.2815 377.559L69.5668 377.701L69.6037 379.701L77.3183 379.559L77.2815 377.559ZM68.6462 378.357L67.115 382.538L68.993 383.226L70.5242 379.045L68.6462 378.357ZM67.0997 382.583C67.1082 382.556 67.12 382.534 67.1302 382.519C67.1398 382.505 67.1443 382.503 67.1353 382.511L68.435 384.031C68.6884 383.814 68.8984 383.532 69.0084 383.181L67.0997 382.583ZM67.1353 382.511C67.1622 382.488 67.1942 382.47 67.2259 382.458C67.2559 382.448 67.2722 382.448 67.2659 382.448L67.3028 384.448C67.7015 384.441 68.1011 384.316 68.435 384.031L67.1353 382.511ZM67.2659 382.448L65.4662 382.482L65.5031 384.481L67.3028 384.448L67.2659 382.448ZM66.4199 383.835L72.9777 366.516L71.1073 365.807L64.5494 383.127L66.4199 383.835ZM72.0609 367.161L74.4125 367.118L74.3756 365.118L72.024 365.162L72.0609 367.161ZM73.4726 366.507L80.6644 383.573L82.5074 382.796L75.3156 365.73L73.4726 366.507ZM86.1753 383.1L86.1938 384.1L87.1936 384.081L87.1752 383.081L86.1753 383.1ZM83.8477 383.143L82.8479 383.161L82.8663 384.161L83.8662 384.143L83.8477 383.143ZM83.5307 365.95L83.5123 364.95L82.5124 364.968L82.5309 365.968L83.5307 365.95ZM85.8583 365.907L86.8581 365.888L86.8397 364.889L85.8399 364.907L85.8583 365.907ZM86.1569 382.1L83.8293 382.143L83.8662 384.143L86.1938 384.1L86.1569 382.1ZM84.8475 383.124L84.5305 365.931L82.5309 365.968L82.8479 383.161L84.8475 383.124ZM83.5491 366.95L85.8768 366.907L85.8399 364.907L83.5123 364.95L83.5491 366.95ZM84.8585 365.925L85.1755 383.118L87.1752 383.081L86.8581 365.888L84.8585 365.925ZM100.291 380.883L101.291 380.865L101.273 379.865L100.273 379.883L100.291 380.883ZM100.327 382.839L100.346 383.839L101.346 383.82L101.327 382.821L100.327 382.839ZM90.5731 383.019L89.5733 383.037L89.5917 384.037L90.5916 384.019L90.5731 383.019ZM90.2561 365.826L90.2377 364.826L89.2379 364.844L89.2563 365.844L90.2561 365.826ZM92.5717 365.783L93.5716 365.765L93.5531 364.765L92.5533 364.783L92.5717 365.783ZM92.8527 381.02L91.8529 381.039L91.8713 382.039L92.8711 382.02L92.8527 381.02ZM99.2916 380.902L99.3277 382.857L101.327 382.821L101.291 380.865L99.2916 380.902ZM100.309 381.839L90.5547 382.019L90.5916 384.019L100.346 383.839L100.309 381.839ZM91.573 383L91.256 365.807L89.2563 365.844L89.5733 383.037L91.573 383ZM90.2746 366.826L92.5902 366.783L92.5533 364.783L90.2377 364.826L90.2746 366.826ZM91.5719 365.801L91.8529 381.039L93.8525 381.002L93.5716 365.765L91.5719 365.801ZM92.8711 382.02L100.31 381.883L100.273 379.883L92.8343 380.021L92.8711 382.02ZM111.912 376.24L111.93 377.24L113.388 377.213L112.838 375.863L111.912 376.24ZM109.083 369.295L108.157 369.671L108.157 369.672L109.083 369.295ZM108.818 368.58L107.87 368.897L107.873 368.905L108.818 368.58ZM108.55 367.697L109.514 367.431L107.577 367.464L108.55 367.697ZM108.064 369.326L107.131 368.966L107.128 368.974L107.125 368.983L108.064 369.326ZM105.493 376.359L104.554 376.015L104.053 377.385L105.511 377.358L105.493 376.359ZM116.877 382.534L116.895 383.534L118.372 383.506L117.798 382.145L116.877 382.534ZM114.57 382.42L113.954 383.208L113.954 383.208L114.57 382.42ZM114.275 382.03L113.349 382.408L113.354 382.418L114.275 382.03ZM112.591 377.908L113.516 377.53L113.257 376.896L112.572 376.908L112.591 377.908ZM104.876 378.05L104.858 377.05L104.173 377.063L103.937 377.706L104.876 378.05ZM103.345 382.231L102.406 381.887L102.398 381.91L102.391 381.933L103.345 382.231ZM103.076 382.62L103.726 383.38L103.726 383.38L103.076 382.62ZM100.776 382.831L99.8403 382.477L99.3174 383.858L100.794 383.831L100.776 382.831ZM107.333 365.511L107.315 364.511L106.638 364.523L106.398 365.157L107.333 365.511ZM109.685 365.467L110.606 365.079L110.344 364.455L109.667 364.468L109.685 365.467ZM112.838 375.863L110.01 368.918L108.157 369.672L110.986 376.617L112.838 375.863ZM110.01 368.919C109.935 368.733 109.852 368.512 109.764 368.255L107.873 368.905C107.97 369.188 108.065 369.444 108.157 369.671L110.01 368.919ZM109.766 368.263C109.68 368.003 109.595 367.726 109.514 367.431L107.586 367.963C107.676 368.289 107.771 368.601 107.87 368.897L109.766 368.263ZM107.577 367.464C107.428 368.088 107.278 368.586 107.131 368.966L108.997 369.686C109.186 369.196 109.36 368.607 109.522 367.93L107.577 367.464ZM107.125 368.983L104.554 376.015L106.432 376.702L109.003 369.669L107.125 368.983ZM105.511 377.358L111.93 377.24L111.893 375.24L105.475 375.359L105.511 377.358ZM116.858 381.534L115.059 381.567L115.096 383.567L116.895 383.534L116.858 381.534ZM115.059 381.567C115.037 381.568 115.045 381.565 115.072 381.573C115.102 381.581 115.144 381.6 115.186 381.633L113.954 383.208C114.308 383.485 114.719 383.574 115.096 383.567L115.059 381.567ZM115.186 381.633C115.187 381.633 115.189 381.635 115.191 381.637C115.193 381.639 115.195 381.641 115.197 381.643C115.2 381.648 115.2 381.649 115.197 381.641L113.354 382.418C113.484 382.726 113.684 382.997 113.954 383.208L115.186 381.633ZM115.201 381.651L113.516 377.53L111.665 378.286L113.349 382.408L115.201 381.651ZM112.572 376.908L104.858 377.05L104.895 379.05L112.609 378.908L112.572 376.908ZM103.937 377.706L102.406 381.887L104.284 382.575L105.815 378.394L103.937 377.706ZM102.391 381.933C102.399 381.905 102.411 381.883 102.421 381.869C102.431 381.855 102.435 381.853 102.426 381.86L103.726 383.38C103.979 383.164 104.189 382.881 104.299 382.53L102.391 381.933ZM102.426 381.86C102.453 381.837 102.485 381.819 102.517 381.808C102.547 381.797 102.563 381.798 102.557 381.798L102.594 383.797C102.992 383.79 103.392 383.666 103.726 383.38L102.426 381.86ZM102.557 381.798L100.757 381.831L100.794 383.831L102.594 383.797L102.557 381.798ZM101.711 383.185L108.269 365.865L106.398 365.157L99.8403 382.477L101.711 383.185ZM107.352 366.511L109.703 366.467L109.667 364.468L107.315 364.511L107.352 366.511ZM108.763 365.856L115.955 382.922L117.798 382.145L110.606 365.079L108.763 365.856ZM128.015 379.616L128.696 380.349L128.697 380.348L128.015 379.616ZM128.681 378.62L129.621 378.96L129.623 378.953L128.681 378.62ZM127.887 375.274L127.266 376.057L127.272 376.062L127.887 375.274ZM121.31 374.615L121.291 373.615L120.291 373.633L120.31 374.633L121.31 374.615ZM121.42 380.602L120.42 380.62L120.439 381.62L121.439 381.602L121.42 380.602ZM121.171 367.092L121.153 366.092L120.153 366.111L120.171 367.11L121.171 367.092ZM121.279 372.959L120.279 372.977L120.298 373.977L121.298 373.959L121.279 372.959ZM126.05 372.655L125.75 371.701L125.745 371.703L126.05 372.655ZM127.239 372.033L126.6 371.264L126.591 371.272L127.239 372.033ZM127.93 371.096L128.858 371.468L128.861 371.461L127.93 371.096ZM127.183 367.689L126.585 368.49L126.591 368.495L127.183 367.689ZM127.034 365.46L126.788 366.429L126.79 366.43L127.034 365.46ZM128.934 366.313L128.33 367.11L128.337 367.115L128.934 366.313ZM130.052 367.708L129.135 368.108L129.137 368.113L130.052 367.708ZM130.253 370.801L129.302 370.491L129.299 370.503L130.253 370.801ZM128.694 372.822L129.26 373.647L129.264 373.644L128.694 372.822ZM127.29 373.496L126.978 372.546L127.122 374.482L127.29 373.496ZM130.159 374.8L129.447 375.502L129.456 375.511L130.159 374.8ZM130.795 379.373L129.877 378.977L129.872 378.987L130.795 379.373ZM129.648 380.942L128.995 380.185L128.989 380.19L129.648 380.942ZM127.771 381.985L128.083 382.935L128.092 382.932L127.771 381.985ZM119.139 382.492L118.139 382.511L118.157 383.51L119.157 383.492L119.139 382.492ZM118.822 365.299L118.803 364.299L117.803 364.318L117.822 365.317L118.822 365.299ZM125.158 381.533C125.894 381.519 126.571 381.423 127.17 381.221L126.532 379.326C126.177 379.446 125.713 379.522 125.121 379.533L125.158 381.533ZM127.17 381.221C127.751 381.025 128.271 380.743 128.696 380.349L127.335 378.883C127.161 379.045 126.905 379.2 126.532 379.326L127.17 381.221ZM128.697 380.348C129.115 379.959 129.428 379.494 129.621 378.96L127.741 378.279C127.66 378.502 127.529 378.702 127.334 378.884L128.697 380.348ZM129.623 378.953C129.805 378.442 129.884 377.9 129.873 377.337L127.874 377.374C127.88 377.724 127.831 378.024 127.738 378.286L129.623 378.953ZM129.873 377.337C129.852 376.179 129.405 375.189 128.502 374.485L127.272 376.062C127.652 376.358 127.862 376.756 127.874 377.374L129.873 377.337ZM128.508 374.49C127.609 373.778 126.386 373.521 125.011 373.546L125.048 375.546C126.199 375.525 126.882 375.753 127.266 376.057L128.508 374.49ZM125.011 373.546L121.291 373.615L121.328 375.615L125.048 375.546L125.011 373.546ZM120.31 374.633L120.42 380.62L122.42 380.583L122.31 374.596L120.31 374.633ZM121.439 381.602L125.158 381.533L125.121 379.533L121.402 379.602L121.439 381.602ZM120.171 367.11L120.279 372.977L122.279 372.941L122.171 367.074L120.171 367.11ZM121.298 373.959L124.369 373.902L124.332 371.903L121.261 371.959L121.298 373.959ZM124.369 373.902C125.094 373.889 125.762 373.797 126.355 373.607L125.745 371.703C125.384 371.818 124.919 371.892 124.332 371.903L124.369 373.902ZM126.351 373.609C126.932 373.426 127.456 373.162 127.888 372.794L126.591 371.272C126.408 371.427 126.139 371.578 125.75 371.701L126.351 373.609ZM127.878 372.802C128.315 372.439 128.648 371.993 128.858 371.468L127.002 370.724C126.921 370.925 126.794 371.103 126.6 371.264L127.878 372.802ZM128.861 371.461C129.058 370.958 129.146 370.425 129.136 369.874L127.136 369.911C127.142 370.223 127.092 370.493 126.999 370.731L128.861 371.461ZM129.136 369.874C129.113 368.657 128.72 367.578 127.775 366.883L126.591 368.495C126.879 368.706 127.121 369.096 127.136 369.911L129.136 369.874ZM127.782 366.888C126.903 366.232 125.687 366.009 124.32 366.034L124.357 368.033C125.549 368.011 126.23 368.225 126.585 368.49L127.782 366.888ZM124.32 366.034L121.153 366.092L121.189 368.092L124.357 368.033L124.32 366.034ZM124.323 366.198C125.318 366.179 126.134 366.263 126.788 366.429L127.28 364.49C126.406 364.269 125.403 364.178 124.286 364.198L124.323 366.198ZM126.79 366.43C127.467 366.599 127.968 366.836 128.33 367.11L129.538 365.516C128.91 365.04 128.144 364.708 127.278 364.49L126.79 366.43ZM128.337 367.115C128.705 367.389 128.965 367.718 129.135 368.108L130.969 367.309C130.654 366.588 130.169 365.986 129.531 365.511L128.337 367.115ZM129.137 368.113C129.318 368.521 129.424 369.008 129.435 369.592L131.434 369.555C131.419 368.748 131.27 367.991 130.967 367.304L129.137 368.113ZM129.435 369.592C129.44 369.907 129.396 370.205 129.302 370.491L131.204 371.112C131.368 370.609 131.444 370.088 131.434 369.555L129.435 369.592ZM129.299 370.503C129.214 370.773 129.08 371.034 128.887 371.289L130.483 372.495C130.806 372.068 131.05 371.602 131.207 371.1L129.299 370.503ZM128.887 371.289C128.702 371.534 128.453 371.773 128.124 372.001L129.264 373.644C129.741 373.313 130.152 372.932 130.483 372.495L128.887 371.289ZM128.128 371.998C127.824 372.207 127.445 372.393 126.978 372.546L127.603 374.446C128.217 374.244 128.774 373.981 129.26 373.647L128.128 371.998ZM127.122 374.482C128.264 374.677 128.999 375.048 129.447 375.502L130.87 374.097C130.03 373.247 128.852 372.749 127.459 372.511L127.122 374.482ZM129.456 375.511C129.891 375.941 130.151 376.533 130.166 377.392L132.166 377.355C132.142 376.07 131.73 374.947 130.861 374.088L129.456 375.511ZM130.166 377.392C130.178 377.993 130.076 378.516 129.877 378.977L131.713 379.769C132.036 379.02 132.182 378.21 132.166 377.355L130.166 377.392ZM129.872 378.987C129.681 379.444 129.393 379.841 128.995 380.185L130.301 381.699C130.926 381.16 131.403 380.511 131.718 379.758L129.872 378.987ZM128.989 380.19C128.6 380.531 128.094 380.819 127.449 381.038L128.092 382.932C128.942 382.643 129.688 382.236 130.307 381.694L128.989 380.19ZM127.458 381.035C126.824 381.244 126.072 381.364 125.191 381.38L125.228 383.38C126.267 383.361 127.222 383.218 128.083 382.935L127.458 381.035ZM125.191 381.38L119.12 381.492L119.157 383.492L125.228 383.38L125.191 381.38ZM120.138 382.474L119.821 365.281L117.822 365.317L118.139 382.511L120.138 382.474ZM118.84 366.299L124.323 366.198L124.286 364.198L118.803 364.299L118.84 366.299ZM144.37 380.071L145.37 380.052L145.351 379.052L144.351 379.071L144.37 380.071ZM144.406 382.026L144.424 383.026L145.424 383.008L145.406 382.008L144.406 382.026ZM134.652 382.206L133.652 382.225L133.67 383.224L134.67 383.206L134.652 382.206ZM134.335 365.013L134.316 364.013L133.316 364.032L133.335 365.031L134.335 365.013ZM136.65 364.97L137.65 364.952L137.632 363.952L136.632 363.97L136.65 364.97ZM136.931 380.208L135.931 380.226L135.95 381.226L136.95 381.208L136.931 380.208ZM143.37 380.089L143.406 382.045L145.406 382.008L145.37 380.052L143.37 380.089ZM144.387 381.026L134.633 381.206L134.67 383.206L144.424 383.026L144.387 381.026ZM135.651 382.188L135.334 364.995L133.335 365.031L133.652 382.225L135.651 382.188ZM134.353 366.013L136.669 365.97L136.632 363.97L134.316 364.013L134.353 366.013ZM135.65 364.989L135.931 380.226L137.931 380.189L137.65 364.952L135.65 364.989ZM136.95 381.208L144.388 381.07L144.351 379.071L136.913 379.208L136.95 381.208ZM157.549 379.888L158.549 379.875L158.537 378.869L157.53 378.888L157.549 379.888ZM157.572 381.783L157.59 382.783L158.584 382.765L158.572 381.771L157.572 381.783ZM146.978 381.979L145.978 381.997L145.996 382.997L146.996 382.979L146.978 381.979ZM146.661 364.786L146.642 363.786L145.642 363.804L145.661 364.804L146.661 364.786ZM157.255 364.59L158.255 364.572L158.236 363.572L157.236 363.591L157.255 364.59ZM157.29 366.486L157.308 367.486L158.308 367.467L158.29 366.468L157.29 366.486ZM149.023 366.638L149.005 365.639L148.005 365.657L148.023 366.657L149.023 366.638ZM149.128 372.35L148.129 372.368L148.147 373.368L149.147 373.349L149.128 372.35ZM155.823 372.226L156.823 372.208L156.805 371.208L155.805 371.226L155.823 372.226ZM155.857 374.05L155.875 375.05L156.875 375.031L156.857 374.031L155.857 374.05ZM149.162 374.173L149.144 373.173L148.144 373.192L148.162 374.192L149.162 374.173ZM149.27 380.04L148.27 380.059L148.289 381.058L149.289 381.04L149.27 380.04ZM156.549 379.9L156.572 381.796L158.572 381.771L158.549 379.875L156.549 379.9ZM157.553 380.784L146.959 380.979L146.996 382.979L157.59 382.783L157.553 380.784ZM147.977 381.96L147.66 364.767L145.661 364.804L145.978 381.997L147.977 381.96ZM146.679 365.786L157.273 365.59L157.236 363.591L146.642 363.786L146.679 365.786ZM156.255 364.609L156.29 366.505L158.29 366.468L158.255 364.572L156.255 364.609ZM157.271 365.486L149.005 365.639L149.042 367.638L157.308 367.486L157.271 365.486ZM148.023 366.657L148.129 372.368L150.128 372.331L150.023 366.62L148.023 366.657ZM149.147 373.349L155.842 373.226L155.805 371.226L149.11 371.35L149.147 373.349ZM154.823 372.245L154.857 374.068L156.857 374.031L156.823 372.208L154.823 372.245ZM155.839 373.05L149.144 373.173L149.181 375.173L155.875 375.05L155.839 373.05ZM148.162 374.192L148.27 380.059L150.27 380.022L150.162 374.155L148.162 374.192ZM149.289 381.04L157.567 380.887L157.53 378.888L149.252 379.04L149.289 381.04Z" fill="white" fill-opacity="0.97"/>
</g>
</g>
<line id="Line 1" x1="102.417" y1="35.0541" x2="102.417" y2="286.416" stroke="black" stroke-width="3"/>
</g>
<circle id="base" cx="100.917" cy="21.0366" r="17.5" transform="rotate(-10.5011 100.917 21.0366)" fill="#69E781" fill-opacity="0.81"/>
</g>
</svg>
