<svg width="184" height="94" viewBox="0 0 184 94" fill="none" xmlns="http://www.w3.org/2000/svg">
<g id="newLogo" filter="url(#filter0_d)">
<path id="Vector 7" d="M66.6519 64.8233H72.243L77.8341 68.7414L81.8277 74.2268L85.0226 78.145L92.2112 74.2268L99.3998 64.8233L106.588 53.8525L115.374 38.1799L125.758 24.0746L139.336 17.8055H177.675L169.688 27.9927H144.129L132.946 38.1799L144.129 46.0162L177.675 49.9343L169.688 57.7706H139.336L132.946 49.9343V57.7706H120.965L115.374 49.9343L106.588 64.8233L92.2112 84.414H77.8341L66.6519 64.8233Z" fill="#2586ea" stroke="black" stroke-width="2"/>
<path id="Vector 1" d="M29.5108 14.6736H60.6613L49.4791 27.2117H24.7185L19.1274 36.6152L29.5108 44.4515H55.8689L65.4537 14.6736H71.8435L79.0321 20.159L92.6105 40.5334L106.988 14.6736C118.489 -8.52182 114.442 5.00884 110.981 14.6736H117.371L122.163 20.159L97.4029 53.0714L92.6105 56.9896H87.8181L71.8435 31.9134L65.4537 56.9896H60.6613H24.7185L11.9388 49.1533L5.54895 36.6152L11.9388 20.159L29.5108 14.6736Z" fill="#E3C214" stroke="black" stroke-width="2"/>
<path id="Vector 3" d="M65.4536 65.6239C71.8434 63.7432 70.7785 64.8403 69.4473 65.6239" stroke="black"/>
</g>
<defs>
<filter id="filter0_d" x="0.454712" y="0.866211" width="183.414" height="92.5478" filterUnits="userSpaceOnUse" color-interpolation-filters="sRGB">
<feFlood flood-opacity="0" result="BackgroundImageFix"/>
<feColorMatrix in="SourceAlpha" type="matrix" values="0 0 0 0 0 0 0 0 0 0 0 0 0 0 0 0 0 0 127 0"/>
<feOffset dy="4"/>
<feGaussianBlur stdDeviation="2"/>
<feColorMatrix type="matrix" values="0 0 0 0 0 0 0 0 0 0 0 0 0 0 0 0 0 0 0.25 0"/>
<feBlend mode="normal" in2="BackgroundImageFix" result="effect1_dropShadow"/>
<feBlend mode="normal" in="SourceGraphic" in2="effect1_dropShadow" result="shape"/>
</filter>
</defs>
</svg>
