<?xml version="1.0" encoding="utf-8"?>
<!-- Generator: Adobe Illustrator 21.0.0, SVG Export Plug-In . SVG Version: 6.00 Build 0)  -->
<svg version="1.1" id="Layer_1" xmlns="http://www.w3.org/2000/svg" xmlns:xlink="http://www.w3.org/1999/xlink" x="0px" y="0px"
	 width="2800px" height="2000px" viewBox="0 0 2800 2000" style="enable-background:new 0 0 2800 2000;" xml:space="preserve">
<style type="text/css">
	.st0{fill:#EDEBDC;}
	.st1{fill:#7F7293;}
	.st2{fill:#DDDAC8;}
	.st3{fill:#F7F6F0;}
	.st4{fill:#D1CDB7;}
	.st5{fill:#CECBBA;}
	.st6{fill:#5B4663;}
	.st7{fill:#64C7ED;}
	.st8{fill:#44A0C9;}
	.st9{fill:#3A3041;}
	.st10{fill:#73637A;}
	.st11{fill:#615168;}
	.st12{fill:#483A4F;}
	.st13{fill:#5B6275;}
	.st14{fill:#454A5B;}
	.st15{fill:#D24190;}
	.st16{fill:#E29865;}
	.st17{fill:#423149;}
	.st18{fill:#FFFFFF;}
	.st19{fill:#F6AC75;}
	.st20{fill:#D88D5A;}
	.st21{fill:#B73180;}
	.st22{fill:#E595C0;}
	.st23{fill:#A897B2;}
	.st24{fill:#CEC1D6;}
	.st25{fill:#817189;}
	.st26{fill:#B63481;}
	.st27{fill:#877293;}
	.st28{fill:#B3327F;}
	.st29{fill:#F7C39E;}
	.st30{fill:#67B3E4;}
	.st31{fill:#84CCF2;}
	.st32{fill:#3E9CD1;}
	.st33{fill:#2E94BF;}
</style>
<rect class="st0" width="2800" height="2000"/>
<ellipse class="st1" cx="1414.3696" cy="1647.6459" rx="685.2433" ry="121.2468"/>
<path class="st2" d="M2163.0232,1692.7167c117.5916-157.0046,187.2458-351.9867,187.2458-563.2391
	C2350.269,610.0661,1929.203,189,1409.7917,189s-940.4775,421.0661-940.4775,940.4775
	c0,211.2524,69.6545,406.2345,187.2458,563.2391H2163.0232z"/>
<ellipse class="st3" cx="1400.0001" cy="1685.4904" rx="968.9304" ry="139.6542"/>
<ellipse class="st4" cx="1434.0414" cy="1654.859" rx="556.4064" ry="59.8997"/>
<ellipse class="st4" cx="1939.1716" cy="1666.3792" rx="291.8426" ry="66.7132"/>
<ellipse transform="matrix(0.9773 -0.2121 0.2121 0.9773 -329.3171 372.6201)" class="st4" cx="1572.5126" cy="1721.6008" rx="213.7333" ry="66.9208"/>
<g>
	<path class="st5" d="M1970.3739,1095.9879H815.6507c-24.082,0-43.6044-19.5223-43.6044-43.6044V510.1238
		c0-24.082,19.5223-43.6044,43.6044-43.6044h1154.7231c24.082,0,43.6044,19.5223,43.6044,43.6044v542.2598
		C2013.9783,1076.4656,1994.4559,1095.9879,1970.3739,1095.9879z"/>
	<path class="st0" d="M815.6509,1059.954c-4.1746,0-7.5709-3.3958-7.5709-7.5709V510.1238c0-4.1746,3.3963-7.5704,7.5709-7.5704
		h1154.7234c4.1742,0,7.5699,3.3958,7.5699,7.5704v542.2592c0,4.1752-3.3958,7.5709-7.5699,7.5709H815.6509z"/>
	<g>
		<polygon class="st3" points="1977.9442,766.0364 1977.9442,738.5943 1657.2169,1059.954 1684.605,1059.954 		"/>
		<polygon class="st3" points="1573.491,1059.954 1610.4175,1059.954 1977.9442,691.7025 1977.9442,654.7033 		"/>
	</g>
</g>
<g>
	<g>
		<path class="st6" d="M1169.1348,688.7516v232.116h38.1536v-232.116c0-10.5358-8.5409-19.0768-19.0768-19.0768l0,0
			C1177.6758,669.6748,1169.1348,678.2158,1169.1348,688.7516z"/>
		<g>
			<rect x="1199.5701" y="845.9028" class="st7" width="32.21" height="769.4474"/>
			<rect x="1150.4346" y="845.9028" class="st8" width="49.1355" height="769.4474"/>
		</g>
	</g>
	<g>
		<path class="st6" d="M856.4706,688.7516v232.116h38.1536v-232.116c0-10.5358-8.541-19.0768-19.0767-19.0768h-0.0001
			C865.0116,669.6748,856.4706,678.2158,856.4706,688.7516z"/>
		<g>
			<rect x="886.906" y="845.9028" class="st7" width="32.21" height="769.4474"/>
			<rect x="837.7704" y="845.9028" class="st8" width="49.1355" height="769.4474"/>
		</g>
	</g>
	<g>
		<g>
			<path class="st9" d="M1538.0602,768.9591h-125.412c-9.6578,0-17.4869-7.8291-17.4869-17.4871s7.8291-17.4871,17.4869-17.4871
				h125.412c9.6573,0,17.4871,7.8291,17.4871,17.4871S1547.7175,768.9591,1538.0602,768.9591z"/>
			<rect x="1347.5344" y="598.0361" class="st10" width="59.5387" height="306.8713"/>
			<ellipse class="st10" cx="1407.073" cy="751.4717" rx="95.092" ry="153.4357"/>
			<ellipse class="st11" cx="1347.5343" cy="751.4717" rx="95.092" ry="153.4357"/>
			<path class="st12" d="M1347.5342,869.3541c-12.4525,0-25.9462-10.2479-37.0197-28.1162
				c-14.3112-23.0915-22.5187-55.8097-22.5187-89.7664c0-33.9562,8.2075-66.6749,22.5187-89.7664
				c11.0735-17.8678,24.5665-28.1156,37.0197-28.1156s25.9462,10.2478,37.0203,28.1161
				c14.3105,23.091,22.5186,55.8097,22.5186,89.7659s-8.208,66.6749-22.5186,89.7664
				C1373.4803,859.1063,1359.9873,869.3541,1347.5342,869.3541z"/>
			<path class="st11" d="M1352.9095,869.3541c-11.3282,0-23.6036-10.2479-33.6774-28.1162
				c-13.0192-23.0915-20.4856-55.8097-20.4856-89.7664c0-33.9562,7.4664-66.6749,20.4856-89.7664
				c10.0737-17.8678,22.3486-28.1156,33.6774-28.1156s23.6036,10.2478,33.6779,28.1161
				c13.0187,23.091,20.4856,55.8097,20.4856,89.7659s-7.4669,66.6749-20.4856,89.7664
				C1376.5132,859.1063,1364.2383,869.3541,1352.9095,869.3541z"/>
		</g>
		<path class="st9" d="M1361.3126,768.9591H809.9321c-9.6579,0-17.487-7.8291-17.487-17.4871s7.8291-17.4871,17.487-17.4871
			h551.3806c9.658,0,17.4871,7.8291,17.4871,17.4871S1370.9706,768.9591,1361.3126,768.9591z"/>
		<g>
			<rect x="694.9925" y="598.0361" class="st10" width="59.5387" height="306.8713"/>
			<ellipse class="st10" cx="754.5312" cy="751.4717" rx="95.092" ry="153.4357"/>
			<ellipse class="st11" cx="694.9925" cy="751.4717" rx="95.092" ry="153.4357"/>
			<path class="st12" d="M694.9923,869.3541c-12.4526,0-25.9462-10.2479-37.0197-28.1162
				c-14.3112-23.0915-22.5186-55.8097-22.5186-89.7664c0-33.9562,8.2075-66.6749,22.5186-89.7664
				c11.0735-17.8678,24.5666-28.1156,37.0197-28.1156c12.4531,0,25.9461,10.2478,37.0202,28.1161
				c14.3106,23.091,22.5186,55.8097,22.5186,89.7659s-8.208,66.6749-22.5186,89.7664
				C720.9384,859.1063,707.4454,869.3541,694.9923,869.3541z"/>
			<path class="st11" d="M700.3677,869.3541c-11.3283,0-23.6036-10.2479-33.6774-28.1162
				c-13.019-23.0915-20.4855-55.8097-20.4855-89.7664c0-33.9562,7.4665-66.6749,20.4855-89.7664
				c10.0738-17.8678,22.3486-28.1156,33.6774-28.1156s23.6036,10.2478,33.6779,28.1161
				c13.0186,23.091,20.4855,55.8097,20.4855,89.7659s-7.467,66.6749-20.4855,89.7664
				C723.9713,859.1063,711.6965,869.3541,700.3677,869.3541z"/>
			<path class="st9" d="M699.7106,768.9591H574.2982c-9.6579,0-17.4871-7.8291-17.4871-17.4871s7.8292-17.4871,17.4871-17.4871
				h125.4124c9.658,0,17.4871,7.8291,17.4871,17.4871S709.3686,768.9591,699.7106,768.9591z"/>
		</g>
	</g>
	<path class="st7" d="M1285.9474,1665.6923H795.3102c-20.7966,0-37.6556-16.859-37.6556-37.6556v-0.0001
		c0-20.7966,16.859-37.6556,37.6556-37.6556h490.6372c20.7966,0,37.6556,16.859,37.6556,37.6556v0.0001
		C1323.603,1648.8333,1306.744,1665.6923,1285.9474,1665.6923z"/>
	<path class="st8" d="M807.4616,1665.6923h-61.9584c-20.7966,0-37.6556-16.859-37.6556-37.6556v-0.0001
		c0-20.7966,16.859-37.6556,37.6556-37.6556h61.9584c20.7966,0,37.6556,16.859,37.6556,37.6556v0.0001
		C845.1172,1648.8333,828.2582,1665.6923,807.4616,1665.6923z"/>
	<path class="st6" d="M926.5347,793.9715h-50.9874c-7.0239,0-12.7178-5.6939-12.7178-12.7178s5.694-12.7179,12.7178-12.7179h38.2695
		v-56.1074c0-7.0239,5.6939-12.7178,12.7178-12.7178s12.7179,5.694,12.7179,12.7178v68.8253
		C939.2526,788.2776,933.5587,793.9715,926.5347,793.9715z"/>
	<path class="st6" d="M1239.1987,793.9715h-50.9874c-7.0239,0-12.7178-5.6939-12.7178-12.7178s5.6938-12.7179,12.7178-12.7179
		h38.2695v-56.1074c0-7.0239,5.694-12.7178,12.7179-12.7178s12.7178,5.694,12.7178,12.7178v68.8253
		C1251.9165,788.2776,1246.2227,793.9715,1239.1987,793.9715z"/>
</g>
<g>
	<path class="st13" d="M1333.5305,1325.8354h-128.0952v50.4976h128.0952c13.9446,0,25.2489-11.3046,25.2489-25.2488
		C1358.7794,1337.1398,1347.4751,1325.8354,1333.5305,1325.8354z"/>
	<circle class="st14" cx="1205.4353" cy="1351.0842" r="25.2488"/>
	<path class="st13" d="M1269.9293,1655.1566c-13.4556,0-24.3633-10.9088-24.3633-24.3633v-279.7098
		c0-13.4546,10.9077-24.3633,24.3633-24.3633c13.4554,0,24.3633,10.9087,24.3633,24.3633v279.7098
		C1294.2926,1644.2478,1283.3848,1655.1566,1269.9293,1655.1566z"/>
	<path class="st13" d="M1370.3809,1615.3501h-151.851c-13.9016,0-25.1711,11.2697-25.1711,25.171v0.0002
		c0,13.9014,11.2695,25.1709,25.1711,25.1709h151.851c13.9016,0,25.1711-11.2695,25.1711-25.1709v-0.0002
		C1395.552,1626.6198,1384.2825,1615.3501,1370.3809,1615.3501z"/>
	<path class="st14" d="M1239.0898,1615.3501h-60.7601c-13.9016,0-25.1713,11.2697-25.1713,25.171v0.0002
		c0,13.9014,11.2697,25.1709,25.1713,25.1709h60.7601c13.9016,0,25.1711-11.2695,25.1711-25.1709v-0.0002
		C1264.261,1626.6198,1252.9915,1615.3501,1239.0898,1615.3501z"/>
	<path class="st14" d="M1753.0864,1325.8353h-546.6479c-12.9153,0-23.3853-10.47-23.3853-23.3853v-19.5096h593.4183v19.5096
		C1776.4716,1315.3654,1766.0017,1325.8353,1753.0864,1325.8353z"/>
	<path class="st13" d="M1835.7823,1325.8353h-168.7017c-12.9153,0-23.3851-10.47-23.3851-23.3853v-19.5096h215.472v19.5096
		C1859.1676,1315.3654,1848.6976,1325.8353,1835.7823,1325.8353z"/>
	<path class="st8" d="M1786.2458,1209.564h-606.0594c-23.6282,0-42.7825,19.1545-42.7825,42.7827
		c0,23.6283,19.1543,42.7827,42.7825,42.7827h606.0594c23.6283,0,42.7825-19.1544,42.7825-42.7827
		C1829.0283,1228.7185,1809.8741,1209.564,1786.2458,1209.564z"/>
	<path class="st14" d="M1768.9205,1639.5271l-48.0326-131.0519c-28.9413-78.9606-104.8893-132.0133-188.9869-132.0133h-224.4156
		c-14.0161,0-25.3784-11.3623-25.3784-25.3784l0,0c0-14.0161,11.3623-25.3784,25.3784-25.3784h224.4156
		c105.7485,0,200.2518,66.0139,236.6431,165.3035l48.0323,131.051L1768.9205,1639.5271z"/>
	<path class="st13" d="M1768.5441,1491.0085c-36.3912-99.2897-130.8944-165.3035-236.6431-165.3035h-36.541
		c105.7488,0,200.2518,66.0138,236.6431,165.3035l48.0325,131.051l-15.4427,5.66l4.3278,11.8075l47.6559-17.4675
		L1768.5441,1491.0085z"/>
	<path class="st13" d="M1883.788,1615.3501h-151.8508c-13.9016,0-25.1713,11.2697-25.1713,25.171v0.0002
		c0,13.9014,11.2697,25.1709,25.1713,25.1709h151.8508c13.9016,0,25.1713-11.2695,25.1713-25.1709v-0.0002
		C1908.9592,1626.6198,1897.6896,1615.3501,1883.788,1615.3501z"/>
	<path class="st14" d="M1752.4969,1615.3501h-60.7601c-13.9016,0-25.1711,11.2697-25.1711,25.171v0.0002
		c0,13.9014,11.2695,25.1709,25.1711,25.1709h60.7601c13.9016,0,25.1713-11.2695,25.1713-25.1709v-0.0002
		C1777.6682,1626.6198,1766.3986,1615.3501,1752.4969,1615.3501z"/>
</g>
<g>
	<rect x="954.8715" y="1618.8076" class="st7" width="74.1932" height="35.8724"/>
	<circle class="st6" cx="986.4032" cy="1618.8076" r="31.5317"/>
	<path class="st6" d="M1118.7722,1604.0428L1118.7722,1604.0428c-8.0834,1.754-16.058-3.3768-17.812-11.4601l-13.3481-61.5134
		c-1.754-8.0834,3.3768-16.058,11.4601-17.812h0.0001c8.0833-1.754,16.058,3.3768,17.812,11.4601l13.348,61.5134
		C1131.9863,1594.3141,1126.8555,1602.2888,1118.7722,1604.0428z"/>
	<path class="st6" d="M1217.7677,1603.6454c0,15.1177-5.0891,29.0806-13.6848,40.1995h-104.4755
		c-8.5958-11.1189-13.6849-25.0818-13.6849-40.1995c0-29.0161,18.7312-53.6489,44.7538-62.48h0.0215
		c0.5559-0.1709,1.1119-0.3419,1.6677-0.5131l0.0021,0.0221c6.1548-1.9036,12.6896-2.9729,19.4775-2.9729
		C1188.2596,1537.7015,1217.7677,1567.231,1217.7677,1603.6454z"/>
	<path class="st6" d="M1141.8381,1643.8448H982.1313l-5.0464-55.1672c49.9499-15.4382,50.2277-15.5238,153.5914-47.5122h0.0215
		c0.5559-0.1709,1.1119-0.3419,1.6677-0.5131L1141.8381,1643.8448z"/>
	<path class="st15" d="M1212.2588,1665.0992H958.815c-8.1571,0-14.7698-6.6127-14.7698-14.7698l0,0
		c0-8.1572,6.6127-14.7698,14.7698-14.7698h253.4438c8.1571,0,14.7698,6.6125,14.7698,14.7698l0,0
		C1227.0286,1658.4866,1220.4159,1665.0992,1212.2588,1665.0992z"/>
	<path class="st16" d="M1538.0326,1099.222c-22.3888-40.0216-72.9823-54.3163-113.0044-31.9277
		c-5.9985,3.3556-11.4066,7.3557-16.2124,11.8483l-0.0065-0.0092c-0.1759,0.165-0.3445,0.3226-0.5201,0.4869
		c-0.0449,0.0428-0.0914,0.0846-0.1361,0.1277c-113.4287,106.1881-113.5632,106.3137-177.8518,166.4988l0.0037,0.0051
		c-5.8041,5.4254-10.0242,12.1455-12.4474,19.449l-0.0103-0.0039c-29.5558,88.995-67.1602,202.2241-92.082,277.2656l0.0488,0.0173
		c-3.3738,10.1697-2.6689,21.6542,2.9741,31.7419c10.6582,19.0526,34.7435,25.8574,53.7961,15.1992
		c8.3402-4.6655,14.333-11.9045,17.5419-20.1676l0.0063,0.0022c12.6473-32.5151,28.1349-72.332,44.4133-114.1821
		c16.3406-15.6493,31.0365-32.2947,39.6198-50.3472c16.6616-35.0427,21.7844-69.7323,15.1472-90.4535
		c0.0421-0.108,0.0851-0.2185,0.1272-0.3265c63.5372-31.3848,73.1411-36.1287,202.9061-100.2264l-0.0074-0.0105
		c1.2648-0.6257,2.5205-1.2865,3.7656-1.9832C1546.1265,1189.8378,1560.4211,1139.244,1538.0326,1099.222z"/>
	<path class="st17" d="M1538.0326,1099.222c-22.3888-40.0216-72.9823-54.3163-113.0044-31.9277
		c-5.9985,3.3556-11.4066,7.3557-16.2124,11.8483l-0.0065-0.0092c-0.1759,0.165-0.3445,0.3226-0.5201,0.4869
		c-0.0449,0.0428-0.0914,0.0846-0.1361,0.1277c-113.4287,106.1881-113.5632,106.3137-177.8518,166.4988l0.0037,0.0051
		c-5.8041,5.4254-10.0242,12.1455-12.4474,19.449l-0.0103-0.0039c-25.2927,76.1581-56.4727,170.0433-80.5616,242.5768
		c4.2443,26.8022,56.292,35.8302,79.5723,18.4825c8.6685-22.2856,18.0363-46.3694,27.688-71.1827
		c16.3406-15.6493,31.0365-32.2947,39.6198-50.3472c16.6616-35.0427,21.7844-69.7323,15.1472-90.4535
		c0.0421-0.108,0.0851-0.2185,0.1272-0.3265c63.5372-31.3848,73.1411-36.1287,202.9061-100.2264l-0.0074-0.0105
		c1.2648-0.6257,2.5205-1.2865,3.7656-1.9832C1546.1265,1189.8378,1560.4211,1139.244,1538.0326,1099.222z"/>
	<path class="st18" d="M1090.0121,1586.2324c-2.8708,0-5.5742-1.7528-6.6489-4.5979l-8.9489-23.701
		c-1.3859-3.672,0.4659-7.7722,4.1379-9.1581c3.6669-1.3839,7.7701,0.464,9.158,4.1379l8.9489,23.701
		c1.386,3.6719-0.4659,7.7721-4.1378,9.158C1091.6945,1586.0836,1090.8468,1586.2324,1090.0121,1586.2324z"/>
	<path class="st18" d="M1061.5179,1594.3832c-2.871,0-5.5743-1.7527-6.6489-4.5978l-8.9489-23.7012
		c-1.386-3.6719,0.4658-7.7721,4.1378-9.158c3.6689-1.386,7.7711,0.4639,9.1581,4.1378l8.9489,23.701
		c1.3859,3.672-0.4659,7.7722-4.1379,9.1581C1063.2002,1594.2345,1062.3527,1594.3832,1061.5179,1594.3832z"/>
	<path class="st18" d="M1033.0227,1602.5341c-2.871,0-5.5743-1.7527-6.6489-4.5979l-8.9479-23.701
		c-1.3859-3.6719,0.4669-7.7721,4.1379-9.1581c3.6719-1.3859,7.7701,0.4659,9.158,4.1379l8.9479,23.701
		c1.3859,3.6719-0.4669,7.7721-4.1378,9.1581C1034.7051,1602.3854,1033.8564,1602.5341,1033.0227,1602.5341z"/>
</g>
<path class="st19" d="M1287.3806,958.0967c-28.4497,0-44.0217-28.6995-51.5054-42.493
	c-7.9912-14.7294-16.8053-34.3382-26.1973-58.2812c-11.689-29.7998-30.9299-84.6866-32.7996-105.1043
	c-1.7885-19.5414,12.6019-36.8324,32.1433-38.6218c19.4392-1.7656,36.6688,12.4691,38.594,31.8687
	c0.9675,6.6837,9.7866,37.3063,24.1453,75.3343c7.7552,20.5386,14.4042,36.069,19.7772,47.4477
	c31.0361-31.8915,82.5007-85.7989,129.4121-135.372c13.4883-14.2556,35.976-14.8732,50.2275-1.3859
	c14.2526,13.4882,14.873,35.9759,1.3859,50.2275c-24.0164,25.3784-144.6897,152.7325-161.8787,167.67
	C1304.2206,955.0037,1295.9448,958.0967,1287.3806,958.0967z"/>
<path class="st20" d="M1479.125,742.6411c-0.6079,7.8256-3.7938,15.5019-9.6091,21.6467
	c-24.0162,25.3785-144.6897,152.7325-161.8785,167.6701c-6.4647,5.6169-14.7404,8.7099-23.3046,8.7099
	c-28.4496,0-44.0217-28.6994-51.5054-42.493c-7.9911-14.7294-16.8053-34.3382-26.1973-58.2811
	c-9.395-23.9518-23.6615-64.097-29.8729-89.5382c0.0244,0.6183,0.0642,1.2393,0.1211,1.8627
	c1.8696,20.4177,21.1108,75.3045,32.7996,105.1043c9.3921,23.9429,18.2062,43.5517,26.1974,58.2811
	c7.4836,13.7936,23.0557,42.493,51.5052,42.493c8.5642,0,16.8401-3.093,23.3047-8.71
	c17.1888-14.9376,137.8622-142.2916,161.8784-167.6701C1482.7817,770.9196,1484.8949,755.398,1479.125,742.6411z"/>
<g>
	<path class="st6" d="M1504.6963,1720.2513v-155.5842l51.0801-44.0573c9.4282-8.132,23.1761-8.8185,33.3676-1.6661l38.5289,27.0399
		c16.8384,11.8173,23.8304,33.3472,17.1481,52.803l-54.377,158.3214l-85.7477-4.0619V1720.2513z"/>
	<path class="st6" d="M1555.6715,1626.734l-27.9237,12.656c-6.3168,2.863-13.7585,0.0631-16.6216-6.2538l-24.3163-53.6505
		c-2.863-6.3169-0.0631-13.7585,6.2537-16.6216l27.9237-12.656c6.3169-2.863,13.7585-0.0631,16.6216,6.2537l24.3164,53.6506
		C1564.7882,1616.4292,1561.9884,1623.871,1555.6715,1626.734z"/>
	<g>
		<path class="st18" d="M1544.2104,1647.3745h-39.5139c-5.046,0-9.1362-4.0902-9.1362-9.1362c0-5.0459,4.0902-9.1362,9.1362-9.1362
			h39.5139c5.046,0,9.1362,4.0903,9.1362,9.1362C1553.3467,1643.2843,1549.2565,1647.3745,1544.2104,1647.3745z"/>
		<path class="st18" d="M1544.2104,1674.7832h-39.5139c-5.046,0-9.1362-4.0902-9.1362-9.1362c0-5.0459,4.0902-9.1362,9.1362-9.1362
			h39.5139c5.046,0,9.1362,4.0903,9.1362,9.1362C1553.3467,1670.693,1549.2565,1674.7832,1544.2104,1674.7832z"/>
		<path class="st18" d="M1544.2104,1701.8529h-39.5139c-5.046,0-9.1362-4.0903-9.1362-9.1362c0-5.046,4.0902-9.1362,9.1362-9.1362
			h39.5139c5.046,0,9.1362,4.0902,9.1362,9.1362C1553.3467,1697.7626,1549.2565,1701.8529,1544.2104,1701.8529z"/>
	</g>
	<path class="st6" d="M1580.4921,1685.4904h-85.2096c-28.5007,0-51.6051,23.1044-51.6051,51.6051v20.0126h136.8147V1685.4904z"/>
	<path class="st15" d="M1590.4438,1771.3203h-142.1906c-7.8495,0-14.2119-6.3624-14.2119-14.2119s6.3624-14.2119,14.2119-14.2119
		h132.0452l59.0256-171.8574c2.5497-7.4232,10.6301-11.3787,18.0582-8.825c7.4232,2.5497,11.3738,10.6332,8.825,18.0563
		l-62.3218,181.4537C1601.9137,1767.4659,1596.5138,1771.3203,1590.4438,1771.3203z"/>
</g>
<path class="st19" d="M1610.6033,1087.7717c-7.8474-15.0322-19.0881-27.0188-32.2517-35.5819
	c-22.1018-14.3773-39.0508-35.5863-47.2002-60.6619c-23.3629-71.8881-10.1523-145.895,11.5037-189.8766
	c15.1061-30.6791,6.446-68.2214-21.8441-87.4324c-34.8367-23.6566-81.1799-10.6939-99.3579,25.661
	c-29.1515,58.3029-42.8409,132.3286-37.5581,203.0967c3.8756,51.9177,17.6437,100.9496,40.5287,145.464
	c-98.692,71.2345-106.7319,77.0374-172.5627,124.5532l0.0023,0.0048c-20.2487,14.5786-26.5521,42.4181-13.8098,64.4884
	c1.7089,2.9596,3.6798,5.6735,5.8649,8.1312c65.3459,73.6517,219.887,247.8352,274.9379,309.8832h0.0005
	c12.798,14.455,34.405,18.4177,51.7744,8.3895c19.8403-11.4548,26.6382-36.8243,15.1835-56.6646
	c-1.1609-2.011-2.4977-3.8501-3.9243-5.5875l0.038-0.0325c-23.1119-28.0897-64.5482-78.4497-109.0598-132.5482
	c-6.6591-27.248-14.9631-54.3397-29.5706-74.2472c-24.0684-32.8011-53.8018-54.2581-75.5182-56.7098
	c37.4515-11.2461,76.6399-23.0138,186.062-55.8717l-0.0104-0.0208c10.9274-3.2906,21.5406-8.5806,31.2814-16.2365
	C1620.7112,1177.9926,1631.5569,1127.9098,1610.6033,1087.7717z"/>
<path class="st20" d="M1610.6031,1087.7716c-7.8473-15.0321-19.088-27.0187-32.2517-35.5818
	c-22.1016-14.3773-39.0508-35.5864-47.2001-60.6619c-23.3629-71.8881-10.1523-145.8951,11.5035-189.8765
	c15.1061-30.6791,6.4462-68.2214-21.844-87.4325c-19.2448-13.0685-41.9944-14.9429-61.5742-7.8907
	c15.2419-1.5479,31.2294,2.0236,45.3318,11.6001c28.2902,19.211,36.9502,56.7534,21.8442,87.4324
	c-21.6562,43.9815-34.8666,117.9885-11.5037,189.8765c8.1493,25.0756,25.0984,46.2846,47.2002,60.6619
	c13.1635,8.5631,24.4041,20.5498,32.2516,35.5818c20.9537,40.1382,10.1079,90.2209-25.4907,118.2007
	c-9.7407,7.6559-20.3541,12.9458-31.2814,16.2365l0.0105,0.0208c-109.4221,32.8579-148.6106,44.6256-186.062,55.8717
	c21.7163,2.4519,51.4497,23.9087,75.5181,56.7098c14.6075,19.9075,22.9116,46.9991,29.5707,74.2473
	c44.5116,54.0984,85.9478,104.4584,109.0597,132.5481l-0.0378,0.0326c1.4265,1.7372,2.7633,3.5765,3.9242,5.5873
	c11.4546,19.8405,4.6569,45.2098-15.1835,56.6646c-1.1729,0.6772-2.3662,1.2852-3.5739,1.8358
	c6.7488-0.144,13.5575-1.9315,19.8163-5.5452c19.8403-11.4547,26.6382-36.8242,15.1835-56.6646
	c-1.161-2.0109-2.4977-3.8501-3.9243-5.5873l0.038-0.0326c-23.1119-28.0897-64.5482-78.4497-109.0598-132.5481
	c-6.6591-27.2482-14.9631-54.3398-29.5706-74.2473c-24.0682-32.8011-53.8018-54.2579-75.5182-56.7098
	c37.4515-11.2461,76.6398-23.0138,186.062-55.8717l-0.0104-0.0208c10.9274-3.2906,21.5406-8.5806,31.2814-16.2365
	C1620.7112,1177.9926,1631.5569,1127.9098,1610.6031,1087.7716z"/>
<path class="st15" d="M1378.0002,881.6642c-25.1978-7.3381-47.9976-18.5684-43.4158-34.725
	c9.6438-34.0071,89.8396-118.2634,112.1726-136.5359c0,0,48.7266-12.1816,71.0596,0s31.5585,21.0776,34.5743,28.9314
	c24.3633,63.446-38.6349,142.3257-24.423,210.6409c0,6.0908-93.3926,50.7568-146.1797-2.0303
	C1377.7278,931.7031,1378.0002,881.6642,1378.0002,881.6642z"/>
<path class="st21" d="M1552.391,739.3347c-3.0159-7.8538-12.2413-16.7498-34.5743-28.9313
	c-4.6681-2.5463-10.4916-4.0247-16.7799-4.7758c-0.0088-0.001-0.0177-0.002-0.0264-0.003
	c-1.3624-0.1622-2.7466-0.2891-4.1458-0.3862c-0.0569-0.0039-0.1138-0.0077-0.1707-0.0116
	c-1.3801-0.0932-2.7729-0.1577-4.1748-0.1945c-0.0383-0.001-0.0767-0.0024-0.1149-0.0034c-0.8058-0.0203-1.6128-0.035-2.4219-0.0385
	l-0.0194,0.0089c0,0,0.0175,0.0087,0.0256,0.0128c-6.4855-0.0287-13.0427,0.4457-19.0269,1.1465
	c11.5232,0.8294,23.0892,4.6275,33.6067,11.7696c16.1355,10.9572,25.8732,27.8799,28.4695,46.0893
	c-0.4508,11.0809-1.9349,22.9181-3.2009,33.1105c-0.9631,2.7851-2.0967,5.5365-3.4243,8.2327
	c-18.3313,37.2291-30.6036,95.9726-19.7723,156.7332c3.7565-1.4597,7.0985-2.9302,9.979-4.3316
	c0.0004,0.0013,0.0006,0.0026,0.001,0.0038c0.1427-0.0694,0.2769-0.1375,0.4172-0.2065c0.223-0.1097,0.4454-0.2191,0.6624-0.3278
	c0.4587-0.2298,0.9058-0.4575,1.3373-0.6823c0.136-0.071,0.2675-0.141,0.4008-0.2114c0.4041-0.2133,0.7946-0.4236,1.1727-0.6315
	c0.1381-0.0759,0.2731-0.151,0.4076-0.2261c0.3958-0.2209,0.7776-0.4385,1.1425-0.652c0.0377-0.022,0.0808-0.0455,0.1183-0.0674
	l-0.0002-0.0009c3.6436-2.1436,5.6892-3.8856,5.6892-4.7848C1513.7561,881.6605,1576.7543,802.7807,1552.391,739.3347z"/>
<path class="st19" d="M1687.0303,1238.7859c-17.6251,0-32.9176-13.1035-35.2007-31.0488
	c-13.395-105.2412-123.0566-361.0477-153.6823-412.7285c-10.0037-16.8826-4.4283-38.6763,12.4532-48.679
	c16.8806-10.0076,38.6744-4.4274,48.6791,12.4512c31.941,53.9014,147.7083,319.5183,163.0404,439.9865
	c2.4774,19.4641-11.2943,37.2528-30.7594,39.7311C1690.0389,1238.6908,1688.5251,1238.7859,1687.0303,1238.7859z"/>
<path class="st20" d="M1722.3201,1198.7672c-15.332-120.468-131.0994-386.0849-163.0404-439.9863
	c-1.8586-3.1355-4.1252-5.8792-6.6903-8.2073c36.4775,70.451,138.0057,318.4744,150.6882,433.4073
	c2.1522,19.5027-11.9144,37.0591-31.4181,39.2123c-1.5248,0.1669-3.0399,0.2368-4.5348,0.2119
	c-3.7207-0.0621-7.3253-0.7126-10.7195-1.86c6.2936,10.4713,17.7567,17.2408,30.425,17.2408c1.4949,0,3.0087-0.0951,4.5304-0.2875
	C1711.0258,1236.0201,1724.7975,1218.2314,1722.3201,1198.7672z"/>
<ellipse class="st19" cx="1721.1071" cy="1209.564" rx="65.1388" ry="34.432"/>
<path class="st19" d="M1407.8435,790.5991c-6.5375-15.7143,8.6221-51.3254,34.9952-72.2778
	c4.2836-3.4312,8.994-6.4562,14.0697-8.9331c22.8406-11.1665,41.7227-6.1584,51.8939,0.0203
	C1524.9226,719.2012,1417.9949,792.291,1407.8435,790.5991z"/>
<ellipse transform="matrix(0.2368 -0.9716 0.9716 0.2368 375.173 2094.1702)" class="st19" cx="1520.5804" cy="808.2777" rx="75.0056" ry="39.9443"/>
<g>
	<path class="st21" d="M1462.4406,903.6783c14.833-20.2918-40.4954-24.8324-93.3125-24.8104
		c2.8958,0.9881,5.8658,1.9207,8.8723,2.7963c0,0-0.1011,18.8497,0.7584,37.1665
		C1399.2245,924.8713,1438.6466,936.2291,1462.4406,903.6783z"/>
	<path class="st15" d="M1440.458,841.694l0.0159-0.056c-29.3774-8.3937-29.3774-8.3937-58.755-16.7872l-0.0159,0.056
		c-0.5085-0.145-0.9983-0.3254-1.5167-0.4518c-21.6681-5.2819-43.5156,8.0016-48.7975,29.6694
		c-5.1555,21.1498,7.4004,42.4261,28.1532,48.3459l-0.0161,0.056c29.3776,8.3937,29.3776,8.3937,58.755,16.7872l0.0161-0.056
		c0.5085,0.145,0.9983,0.3254,1.5165,0.4518c21.6681,5.2819,43.5156-8.0016,48.7977-29.6695
		C1473.7667,868.89,1461.2106,847.6138,1440.458,841.694z"/>
	<path class="st22" d="M1386.3339,947.9453c-2.0151-8.2733-2.9336-25.3101-3.351-40.0409
		c-4.7389-1.3899-10.4479-3.0643-18.3374-5.3781l0.0159-0.056c-20.2178-5.9198-32.45-27.196-27.4274-48.3459
		c0.96-4.0412,2.4836-7.789,4.4598-11.1811c13.7816-36.1769,86.9811-114.9438,107.9333-132.54c0,0,20.2339-5.1891,40.3358-5.404
		c-21.2092-0.0864-43.2059,5.404-43.2059,5.404c-21.5067,17.5962-96.644,96.3631-110.7903,132.54
		c-2.0287,3.3921-3.5928,7.1399-4.578,11.1811c-5.1555,21.1498,7.4004,42.4261,28.1532,48.3459l-0.0161,0.056
		c8.0983,2.3138,13.9584,3.9882,18.8226,5.3781c0.4286,14.7308,1.3713,31.7676,3.4398,40.0409
		c19.524,19.524,44.6018,25.709,68.4558,25.4525C1427.8494,973.1406,1404.5974,966.6921,1386.3339,947.9453z"/>
	<path class="st6" d="M1379.7692,934.0754c0.5123,5.587,1.17,10.4728,2.0192,13.8699
		c52.7871,52.7871,146.1797,8.1211,146.1797,2.0303c-0.9027-4.3381-1.4907-8.7189-1.8127-13.1353
		C1452.087,982.9492,1399.8229,949.9592,1379.7692,934.0754z"/>
	<path class="st17" d="M1504.5919,948.3891c0.5614,4.5521,1.2313,9.1215,2.0485,13.7048c0.902-0.3505,1.7771-0.7016,2.6305-1.0522
		c0.0946-0.0389,0.1869-0.0776,0.281-0.1165c2.5898-1.0704,4.9553-2.1353,7.0675-3.163c0.0004,0.0013,0.0006,0.0026,0.001,0.0038
		c0,0,0.0012-0.0006,0.0017-0.0009c0.142-0.0692,0.2758-0.1369,0.4155-0.2056c0.223-0.1097,0.4454-0.2191,0.6624-0.3278
		c0.4587-0.2298,0.9058-0.4575,1.3373-0.6823c0.136-0.071,0.2675-0.141,0.4008-0.2114c0.4041-0.2133,0.7946-0.4236,1.1727-0.6315
		c0.1381-0.0759,0.2731-0.151,0.4076-0.2261c0.3958-0.2209,0.7776-0.4385,1.1425-0.652c0.0375-0.0219,0.0802-0.045,0.1172-0.0669
		l0.0011-0.0005l-0.0002-0.0009c1.8015-1.0599,3.2089-2.0203,4.1749-2.8306c0.0369-0.031,0.0691-0.0604,0.1046-0.0909
		c0.1823-0.156,0.3463-0.306,0.494-0.4499c0.0503-0.0492,0.0975-0.0973,0.1438-0.1451c0.1176-0.1209,0.2194-0.2361,0.3101-0.3472
		c0.0408-0.0502,0.0835-0.1012,0.1189-0.1492c0.078-0.1057,0.1365-0.2039,0.1871-0.2991c0.0215-0.0402,0.0504-0.0834,0.067-0.1217
		c0.0548-0.1266,0.088-0.2446,0.0883-0.3492c0,0,0.0005-0.0013,0.0005-0.0018c-0.0111-0.0529-0.0193-0.1061-0.0303-0.1589
		c-0.2117-1.0267-0.4081-2.0557-0.5856-3.0872c-0.028-0.1616-0.0486-0.3243-0.0756-0.486c-0.1553-0.9308-0.303-1.8627-0.4313-2.7972
		c-0.0087-0.0627-0.0145-0.1257-0.0231-0.1884c-0.2885-2.1289-0.5099-4.2668-0.6665-6.4136
		c-0.0002-0.0013-0.0002-0.0027-0.0005-0.004C1518.7444,941.4537,1511.5558,945.263,1504.5919,948.3891z"/>
</g>
<path class="st7" d="M1907.1394,1209.564h-253.1458c-23.6283,0-42.7825,19.1545-42.7825,42.7827
	c0,23.6283,19.1542,42.7827,42.7825,42.7827h253.1458c23.6282,0,42.7825-19.1544,42.7825-42.7827
	C1949.9219,1228.7185,1930.7676,1209.564,1907.1394,1209.564z"/>
<g>
	<g>
		<path class="st6" d="M1443.2977,1334.811c-24.0684-32.8011-53.8018-54.2581-75.5182-56.7098
			c37.4515-11.2461,76.6399-23.0138,186.062-55.8717l-0.0104-0.0208c10.9274-3.2908,21.5406-8.5807,31.2814-16.2366
			c35.5986-27.9794,46.4445-78.0624,25.4907-118.2004c-7.8473-15.0322-19.0881-27.0188-32.2517-35.5818
			c-11.0258-7.1725-20.7677-16.0463-28.7762-26.2506c-46.723,48.4656-106.2935,50.2002-132.3524,47.64
			c2.2957,5.0038,4.6831,9.9645,7.2007,14.8613c-98.692,71.2345-106.7319,77.0374-172.5627,124.5532l0.0023,0.0048
			c-20.2487,14.5786-26.5521,42.4181-13.8098,64.4884c1.7089,2.9596,3.6798,5.6735,5.8649,8.1312
			c47.5271,53.5681,142.2288,160.3066,211.5272,238.413c31.295,11.3669,71.9025-21.2993,69.4414-51.7512
			c-16.1306-19.6049-33.8164-41.0994-52.0186-63.2218C1466.2092,1381.8102,1457.9052,1354.7185,1443.2977,1334.811z"/>
	</g>
	<path class="st17" d="M1615.9957,1100.2845c-1.4799-4.2499-3.2634-8.4346-5.3926-12.5129c-0.2662-0.51-0.5461-1.0077-0.8202-1.5107
		c-6.2876-11.5422-14.5923-21.2395-24.2394-28.8958c-0.7744-0.6146-1.5574-1.2161-2.3486-1.8044
		c-1.5825-1.1765-3.198-2.3005-4.8435-3.3708c-0.3342-0.2174-0.6561-0.4509-0.9882-0.6715
		c-1.0371-0.6893-2.0741-1.3794-3.0875-2.0988c-1.0187-0.7229-2.0133-1.4746-3.0074-2.2273
		c-0.3108-0.2352-0.632-0.4584-0.9404-0.6965c-1.2573-0.9713-2.4921-1.9685-3.7075-2.9865
		c-0.0353-0.0297-0.0726-0.0574-0.1079-0.0869c-6.2146-5.2174-11.8651-11.0404-16.8494-17.376
		c-0.0286-0.0363-0.0593-0.0707-0.0878-0.1071c-3.5192,3.6505-7.1122,7.031-10.7573,10.1693
		c6.8392,7.5159,14.6658,14.1796,23.2913,19.7905c13.1635,8.5631,24.4041,20.5498,32.2516,35.5818
		c20.9537,40.1382,10.1079,90.2209-25.4907,118.2007c-9.7407,7.6559-20.3541,12.9458-31.2814,16.2365l0.0105,0.0208
		c-109.4221,32.8579-148.6106,44.6256-186.062,55.8717c21.7163,2.4519,51.4497,23.9087,75.5181,56.7098
		c14.6075,19.9075,22.9116,46.9991,29.5707,74.2473c23.0734,28.0428,45.3125,55.0717,64.6093,78.5242
		c2.7856-6.151,4.1674-12.6294,3.6516-19.0117c-13.5515-16.4702-28.201-34.2747-43.3322-52.6648
		c-0.3909-0.4747-0.7784-0.9459-1.1698-1.4216c-2.4945-3.0316-4.9998-6.0765-7.5166-9.1354
		c-4.1619-17.0302-8.9664-33.9991-15.5508-49.1912c-3.9506-9.1152-8.5419-17.5908-14.0198-25.0562
		c-3.7606-5.1252-7.6597-9.9734-11.6448-14.5154c-0.797-0.9084-1.5974-1.8047-2.401-2.6884
		c-6.4279-7.0695-13.0496-13.34-19.6512-18.692c-2.4753-2.0071-4.9482-3.8851-7.4071-5.6276
		c-2.9746-2.108-5.9266-4.0067-8.8401-5.707c-1.3735-0.8016-2.7374-1.5566-4.0908-2.264
		c-7.6399-3.9927-14.928-6.4755-21.4832-7.2155h0.0001h-0.0001c5.7167-1.7167,11.4753-3.4459,17.5166-5.26
		c1.3796-0.4143,2.7725-0.8325,4.1846-1.2565c1.266-0.3802,2.5463-0.7646,3.8428-1.1541c1.9448-0.584,3.9263-1.179,5.9517-1.7871
		c0.8309-0.2494,1.6721-0.5021,2.5184-0.7563c3.2786-0.9845,6.6726-2.0034,10.2156-3.0674c0.7428-0.223,1.4922-0.4481,2.2483-0.6752
		c12.0966-3.6324,25.9071-7.7797,42.502-12.7628c2.0745-0.6229,4.1923-1.2588,6.3556-1.9084
		c2.4133-0.7247,4.8896-1.4684,7.4193-2.2279c1.744-0.5238,3.5166-1.056,5.3182-1.597c0.6223-0.1868,1.2495-0.3751,1.8788-0.5642
		c5.2114-1.5648,10.666-3.2028,16.3845-4.92c0.6904-0.2073,1.3837-0.4154,2.0819-0.6251
		c16.7841-5.0398,35.8123-10.7539,57.6438-17.3096l-0.0034-0.007l-0.007-0.0138c10.9274-3.2909,21.5406-8.5807,31.2814-16.2366
		c3.3374-2.623,6.4572-5.4403,9.3536-8.4255c1.931-1.9901,3.7627-4.0549,5.4934-6.1865c1.7307-2.1315,3.3605-4.3298,4.8875-6.5872
		c0.7635-1.1285,1.5012-2.272,2.2133-3.4291C1621.8319,1157.3351,1625.4393,1127.4058,1615.9957,1100.2845z"/>
	<path class="st18" d="M1548.8024,1103.745c-1.3323,0-2.6577-0.4044-3.8037-1.2035l-21.3784-14.9117
		c-1.9064-1.3304-2.9661-3.5094-2.8372-5.8312c0.1288-2.3177,1.4236-4.3658,3.4647-5.4762l20.4822-11.1387
		c2.0402-1.1084,4.463-1.0846,6.4824,0.0693c2.0173,1.152,3.2694,3.2278,3.3497,5.5496l0.8971,26.0505
		c0.0873,2.5339-1.243,4.8635-3.4717,6.075C1550.9844,1103.4734,1549.8909,1103.745,1548.8024,1103.745z M1547.9111,1068.4293
		c-0.4222,0-0.8456,0.1071-1.2411,0.3232l-20.4822,11.1367c-0.807,0.4382-1.2997,1.2174-1.3512,2.1354
		c-0.0505,0.918,0.3529,1.7487,1.1073,2.2742l21.3783,14.9117c0.8258,0.577,1.844,0.6305,2.7252,0.1508
		c0.8823-0.4799,1.3879-1.3641,1.3533-2.3694l-0.8972-26.0505c-0.0317-0.918-0.5076-1.707-1.3055-2.1631
		C1548.7905,1068.5443,1548.3513,1068.4293,1547.9111,1068.4293z"/>
</g>
<g>
	<path class="st23" d="M2040.7054,1439.1865c-4.4043,0-7.9742-3.5699-7.9742-7.9741v-37.1378c0-8.8887-7.2311-16.121-16.1198-16.121
		h-113.3535c-8.8887,0-16.121,7.2323-16.121,16.121v37.1378c0,4.4042-3.5698,7.9741-7.9741,7.9741s-7.9742-3.5699-7.9742-7.9741
		v-37.1378c0-17.6829,14.3865-32.0693,32.0693-32.0693h113.3535c17.6827,0,32.0682,14.3865,32.0682,32.0693v37.1378
		C2048.6797,1435.6166,2045.1097,1439.1865,2040.7054,1439.1865z"/>
	<path class="st6" d="M2174.072,1685.3123h-161.5092c-20.1326,0-36.4534-16.3207-36.4534-36.4532v-108.1729
		c0-64.7321,52.4757-117.2078,117.2079-117.2078h0.0002c64.7319,0,117.2078,52.4757,117.2078,117.2078v108.1729
		C2210.5254,1668.9916,2194.2046,1685.3123,2174.072,1685.3123z"/>
	<rect x="1806.5261" y="1423.4784" class="st6" width="286.7914" height="261.8339"/>
	<path class="st17" d="M1887.2808,1685.3123h-161.5092c-20.1326,0-36.4534-16.3207-36.4534-36.4532v-108.1729
		c0-64.7321,52.4758-117.2078,117.2079-117.2078h0.0002c64.7321,0,117.2078,52.4757,117.2078,117.2078v108.1729
		C1923.7341,1668.9916,1907.4135,1685.3123,1887.2808,1685.3123z"/>
	<path class="st24" d="M2099.0571,1450.2257c-1.4075,0-2.8313-0.3727-4.123-1.1548c-6.9407-4.2029-14.3352-7.676-21.979-10.3237
		c-3.2119-1.1115-5.3655-4.1362-5.3655-7.5348v-37.1378c0-8.8887-7.2312-16.121-16.1199-16.121h-113.3546
		c-8.8887,0-16.1198,7.2323-16.1198,16.121v31.5931c6.8005,2.6956,13.3931,5.9674,19.6575,9.762
		c3.7668,2.2817,4.9716,7.1844,2.6899,10.9513c-2.2806,3.769-7.1821,4.9728-10.9512,2.6899
		c-6.9408-4.2029-14.3354-7.676-21.9792-10.3237c-3.2117-1.1115-5.3655-4.1362-5.3655-7.5348v-37.1378
		c0-17.6829,14.3854-32.0693,32.0682-32.0693h113.3546c17.6829,0,32.0684,14.3865,32.0684,32.0693v31.5931
		c6.8005,2.6956,13.3931,5.9674,19.6575,9.762c3.7678,2.2817,4.9714,7.1844,2.6899,10.9513
		C2104.3857,1448.8573,2101.7549,1450.2257,2099.0571,1450.2257z"/>
	<path class="st6" d="M1861.2983,1529.0046H1751.754c-3.9083,0-7.0767-3.1683-7.0767-7.0767l0,0
		c0-3.9083,3.1683-7.0767,7.0767-7.0767h109.5443c3.9083,0,7.0767,3.1683,7.0767,7.0767l0,0
		C1868.375,1525.8363,1865.2067,1529.0046,1861.2983,1529.0046z"/>
	<g>
		<path class="st17" d="M2144.0088,1664.9915h-135.0222c-5.113,0-10.0112-1.1493-14.5602-3.4154
			c-8.4403-4.2207-14.6334-11.8567-16.9974-20.9523c-0.702-2.6622-1.0591-5.4412-1.0591-8.2479v-84.7852h200.2546v84.7852
			c0,4.2897-0.8254,8.4625-2.4531,12.4008c-3.541,8.655-10.6531,15.3766-19.5095,18.4293
			C2151.2356,1664.3906,2147.6499,1664.9915,2144.0088,1664.9915z M1983.2048,1554.4258v77.9501
			c0,2.2194,0.2815,4.4121,0.8367,6.5168c1.87,7.1978,6.7672,13.2318,13.4375,16.567c3.5889,1.7888,7.4625,2.6967,11.5076,2.6967
			h135.0222c2.8804,0,5.7136-0.4751,8.4226-1.4106c6.9985-2.413,12.6177-7.7228,15.4189-14.5679
			c1.2883-3.1183,1.939-6.4124,1.939-9.802v-77.9501H1983.2048z"/>
		<g>
			
				<rect x="1997.8019" y="1613.9591" transform="matrix(0.7071 -0.7071 0.7071 0.7071 -575.3176 1894.7908)" class="st17" width="3.4172" height="55.7845"/>
			
				<rect x="2014.7927" y="1572.9396" transform="matrix(0.7071 -0.7071 0.7071 0.7071 -558.3282 1901.8119)" class="st17" width="3.4172" height="103.8419"/>
			
				<rect x="2031.7769" y="1531.9362" transform="matrix(0.7071 -0.7071 0.7071 0.7071 -541.3446 1908.8408)" class="st17" width="3.4172" height="151.8804"/>
			
				<rect x="2064.1738" y="1528.1094" transform="matrix(0.7071 -0.7071 0.7071 0.7071 -530.7363 1931.2712)" class="st17" width="3.4172" height="156.3634"/>
			
				<rect x="2097.3562" y="1528.4404" transform="matrix(0.7071 -0.7071 0.7071 0.7071 -520.4522 1954.5006)" class="st17" width="3.4172" height="154.1026"/>
			
				<rect x="2123.0728" y="1531.8584" transform="matrix(0.7071 -0.7071 0.7071 0.7071 -507.0851 1970.2681)" class="st17" width="3.4172" height="130.7631"/>
			
				<rect x="2141.1606" y="1538.4419" transform="matrix(0.7071 -0.7071 0.7071 0.7071 -490.5486 1978.4028)" class="st17" width="3.4172" height="85.8082"/>
			
				<rect x="2158.1519" y="1545.4801" transform="matrix(0.7071 -0.7071 0.7071 0.7071 -473.5664 1985.3861)" class="st17" width="3.4172" height="37.75"/>
		</g>
		<g>
			
				<rect x="2119.6125" y="1637.665" transform="matrix(0.7074 -0.7068 0.7068 0.7074 -529.3635 1999.9202)" class="st17" width="62.7896" height="3.4187"/>
			
				<rect x="2078.593" y="1620.6742" transform="matrix(0.7074 -0.7068 0.7068 0.7074 -522.3256 1982.9403)" class="st17" width="110.8469" height="3.4187"/>
			
				<rect x="2037.959" y="1604.5825" transform="matrix(0.7071 -0.7071 0.7071 0.7071 -516.016 1966.8092)" class="st17" width="156.3634" height="3.4172"/>
			
				<rect x="2003.9773" y="1604.582" transform="matrix(0.7074 -0.7068 0.7068 0.7074 -526.1236 1941.5803)" class="st17" width="156.3634" height="3.4179"/>
			
				<rect x="1973.6848" y="1603.054" transform="matrix(0.7078 -0.7065 0.7065 0.7078 -534.6824 1917.0046)" class="st17" width="152.0401" height="3.4172"/>
			
				<rect x="1962.3544" y="1593.6774" transform="matrix(0.7078 -0.7065 0.7065 0.7078 -535.2448 1896.8922)" class="st17" width="125.5193" height="3.4172"/>
			
				<rect x="1968.2471" y="1577.1605" transform="matrix(0.7078 -0.7065 0.7065 0.7078 -528.6806 1879.7263)" class="st17" width="78.8024" height="3.4172"/>
			
				<rect x="1975.2849" y="1560.1697" transform="matrix(0.7071 -0.7071 0.7071 0.7071 -521.3646 1865.0708)" class="st17" width="30.745" height="3.4172"/>
		</g>
	</g>
	<path class="st25" d="M2176.6902,1559.7899h-200.3856c-4.8533,0-8.7877-3.9343-8.7877-8.7877l0,0
		c0-4.8534,3.9344-8.7877,8.7877-8.7877h200.3856c4.8533,0,8.7878,3.9343,8.7878,8.7877l0,0
		C2185.478,1555.8556,2181.5435,1559.7899,2176.6902,1559.7899z"/>
	<path class="st26" d="M2140.8179,1483.6979h-181.1875c-3.1458,0-5.6958-2.5502-5.6958-5.6959l0,0
		c0-3.1458,2.55-5.6958,5.6958-5.6958h181.1875c3.1458,0,5.696,2.55,5.696,5.6958l0,0
		C2146.5139,1481.1477,2143.9636,1483.6979,2140.8179,1483.6979z"/>
	<g>
		<path class="st17" d="M1973.3206,1527.762h-7.4447c-3.3674,0-6.5347-1.4841-8.6907-4.0717
			c-2.156-2.5876-3.0426-5.9718-2.4341-9.2848l3.7223-20.2393c0.9879-5.3688,5.6659-9.2659,11.1248-9.2659
			c5.459,0,10.137,3.8971,11.1248,9.2659l3.7224,20.2393c0.6085,3.313-0.2782,6.6971-2.4341,9.2848
			C1979.8552,1526.2778,1976.688,1527.762,1973.3206,1527.762z M1969.5981,1490.5963c-2.71,0-5.0328,1.9346-5.5223,4.6001
			l-3.7223,20.2393c-0.3026,1.6443,0.1379,3.3241,1.2081,4.609s2.6421,2.0214,4.3142,2.0214h7.4447
			c1.672,0,3.2439-0.7365,4.3142-2.0214c1.0702-1.2849,1.5107-2.9647,1.2081-4.609l-3.7224-20.2393
			C1974.631,1492.5309,1972.3082,1490.5963,1969.5981,1490.5963z"/>
		<path class="st25" d="M1969.5981,1496.8198L1969.5981,1496.8198c-5.3719,0-9.7268-4.3549-9.7268-9.7269v-3.3726
			c0-5.3721,4.3549-9.7269,9.7268-9.7269l0,0c5.3721,0,9.7269,4.3549,9.7269,9.7269v3.3726
			C1979.3251,1492.465,1974.9702,1496.8198,1969.5981,1496.8198z"/>
	</g>
	<path class="st6" d="M1861.5662,1643.131h-110.08c-7.1685,0-12.9796-5.8113-12.9796-12.9797v-44.5497
		c0-7.1685,5.8112-12.9797,12.9796-12.9797h110.08c7.1685,0,12.9797,5.8113,12.9797,12.9797v44.5497
		C1874.5459,1637.3197,1868.7346,1643.131,1861.5662,1643.131z"/>
</g>
<g>
	<path class="st6" d="M1671.9801,614.3124c-9.05-4.0677-15.376-12.8888-18.1589-22.4128c-2.7832-9.5241-2.3788-19.713-0.795-29.5081
		c3.5361-21.8751,12.7048-42.3609,19.9917-63.2876s12.7792-43.366,8.61-65.1293c-4.6008-24.0188-21.2155-45.0935-42.7916-56.6061
		c-21.576-11.5128-47.6182-13.7011-71.2828-7.5321c-20.3557,5.3064-40.0469,17.7186-48.4341,37.0104l66.873,117.3198
		c-19.0941,142.4614,97.7633,138.9417,113.2839,85.082C1692.8118,616.7758,1681.0305,618.3801,1671.9801,614.3124z"/>
	<g>
		<path class="st27" d="M1600.9105,618.1854c-10.7257-19.0981-16.0162-47.5053-10.6788-87.3276l-66.8732-117.3198
			c8.3872-19.2918,28.0784-31.7039,48.4342-37.0103c23.6646-6.169,49.7067-3.9807,71.2828,7.5321
			c11.8245,6.3094,22.1526,15.495,29.8359,26.4589c-7.8928-13.9214-19.9155-25.5949-34.0753-33.1502
			c-21.576-11.5128-47.6182-13.7012-71.2828-7.5322c-20.3557,5.3064-40.0469,17.7186-48.4342,37.0104l66.8732,117.3199
			C1579.9918,568.9366,1587.4224,599.2811,1600.9105,618.1854z"/>
	</g>
	<path class="st17" d="M1591.5511,519.4777l-6.3313,3.3336l0.7725,1.3552c-19.0941,142.4613,97.7633,138.9416,113.2839,85.082
		C1681.4437,633.5895,1603.2091,660.5625,1591.5511,519.4777z"/>
	<circle class="st15" cx="1552.3313" cy="454.5888" r="56.8477"/>
	<path class="st28" d="M1595.3138,417.408c0.4579,2.9063,0.7017,5.8839,0.7017,8.9189c0,31.396-25.4515,56.8477-56.8477,56.8477
		c-17.175,0-32.5587-7.6274-42.9825-19.6669c4.2805,27.158,27.7849,47.9287,56.146,47.9287
		c31.3961,0,56.8477-25.4516,56.8477-56.8476C1609.179,440.3677,1603.9448,427.377,1595.3138,417.408z"/>
	<path class="st19" d="M1456.3196,762.8453c-2.3145,1.34-4.7305,2.7408-7.2278,4.162c-5.5223-5.0757-9.4813-11.938-10.9025-19.8764
		c-1.3401-7.4308-1.8477-15.2676-1.6445-23.3481c0.0203-1.8069,0.1014-3.6342,0.203-5.4614
		c2.8018-47.752,27.9163-102.3867,46.4324-130.1608c10.8822-16.3234,32.9513-20.7291,49.2747-9.8468
		c16.3235,10.8823,20.7291,32.9513,9.8469,49.2747c-14.2728,21.3788-28.3629,55.6092-33.1342,82.084
		c-0.2842,1.5227-0.5278,3.0251-0.7308,4.4869c-0.2234,1.4821-0.3857,2.9236-0.5278,4.3245L1456.3196,762.8453z"/>
	<path class="st20" d="M1536.4691,609.5144v-28.0844c-1.2466-1.1158-2.5818-2.1614-4.0142-3.1163
		c-16.3235-10.8823-38.3926-6.4766-49.2748,9.8468c-17.5574,26.3362-41.0339,76.8201-45.808,122.6898
		C1488.1401,702.322,1536.4691,660.1979,1536.4691,609.5144z"/>
	<path class="st19" d="M1427.3645,698.2217h-0.0001c-35.7047,0-88.2118-46.0761-88.2118-102.9138v-62.9328
		c0-56.8377,46.076-102.9138,102.9137-102.9138h0.0002c56.8376,0,102.9137,46.076,102.9137,102.9138v62.9328
		C1544.9802,652.1456,1484.2023,698.2217,1427.3645,698.2217z"/>
	<path class="st29" d="M1345.8492,595.3079v-62.9327c0-56.2687,43.6907-101.9825,97.9189-102.8922
		c-0.5668-0.0092-1.1326-0.0215-1.7017-0.0215h-0.0002c-56.8376,0-102.9137,46.076-102.9137,102.9138v62.9327
		c0,56.8377,52.507,102.9138,88.2118,102.9138h0.0001c0.7906,0,1.5824-0.0122,2.3744-0.03
		C1395.2432,696.9343,1345.8492,651.3549,1345.8492,595.3079z"/>
	<circle class="st19" cx="1547.2206" cy="599.0883" r="31.5042"/>
	<path class="st6" d="M1576.6924,663.7088c-16.6073,7.1114-30.438,2.4482-39.0649-9.1357
		c0.1377,8.4786,3.72,17.4129,12.6755,25.3721c-10.1532,0-20.8257-4.5678-27.937-13.6929
		c5.4369-13.3432,11.8699-26.1034,18.4197-36.3307c2.0774,0.4451,4.2288,0.6677,6.4331,0.6677
		c17.4023,0,31.5085-14.1062,31.5085-31.4979c0-7.122-2.3635-13.6823-6.3484-18.9602
		c-5.7441-7.6201-14.8799-12.5483-25.1602-12.5483c-0.7524,0-1.4943,0.0212-2.2361,0.0847
		c-6.9738,0.4875-13.3115,3.2325-18.2926,7.5248c-3.2219,2.7767-5.8715,6.1787-7.7579,10.0365
		c-0.3286-3.8683-0.2119-8.0228,0.1696-12.3151c3.1477-36.0657,24.3547-82.6025-52.0372-61.4803
		c-80.3981,22.2456-112.214-8.9237-115.0331-28.9331c-7.2493,13.057-11.7429,27.8521-12.6754,43.6011
		c-3.6353-33.0876-2.2363-89.131,72.884-116.1776c101.5201-36.5427,189.708,14.3923,200.995,83.2384
		C1633.5413,617.0131,1517.8192,639.3435,1576.6924,663.7088z"/>
	<path class="st27" d="M1416.1876,413.1034c63.8995-23.001,122.5093-11.3386,159.9932,17.6265
		c-37.2371-31.2651-97.7513-44.6312-163.9408-20.806c-75.1204,27.0466-76.5193,83.09-72.884,116.1776
		c0.3843-6.4905,1.3827-12.8154,2.9203-18.927C1343.156,475.0066,1356.0372,434.7602,1416.1876,413.1034z"/>
	<path class="st17" d="M1615.3423,511.7358c-1.2179,3.4122-2.4521,6.6906-3.876,9.576
		c-5.9308,12.0178-16.7076,21.5901-29.3538,26.0334c-10.1288,3.5588-21.3198,3.9691-30.9056,8.8031
		c-6.4155,3.2352-11.6494,8.2296-16.1694,13.879c3.0935-1.2965,6.4384-2.1144,9.9452-2.3596
		c0.7418-0.0635,1.4836-0.0847,2.2361-0.0847c10.2803,0,19.416,4.9282,25.1602,12.5483c3.9849,5.2779,6.3484,11.8382,6.3484,18.9602
		c0,17.3917-14.1062,31.4979-31.5085,31.4979c-2.2043,0-4.3557-0.2225-6.4331-0.6677
		c-6.5498,10.2273-12.9828,22.9875-18.4197,36.3307c7.1113,9.1251,17.7838,13.6929,27.937,13.6929
		c-8.9556-7.9592-12.5378-16.8936-12.6755-25.3721c8.627,11.5839,22.4576,16.2471,39.0649,9.1357
		C1520.892,640.6152,1621.9325,619.3457,1615.3423,511.7358z"/>
</g>
<path class="st19" d="M1247.394,758.9891c-3.0901,0-6.2019-1.0012-8.8121-3.0692c-6.1542-4.8715-7.1941-13.8094-2.3217-19.9637
	c11.1764-14.1187,29.7671-32.5002,62.0215-29.1306c7.8068,0.8149,13.4734,7.8048,12.6575,15.6117
	c-0.8159,7.8058-7.79,13.4733-15.6117,12.6575c-14.7224-1.5425-25.0245,3.6511-36.7819,18.5034
	C1255.7411,757.1412,1251.5874,758.9891,1247.394,758.9891z"/>
<path class="st20" d="M1226.7161,784.2441c10.7216,0,20.7612-3.2023,29.2643-8.6945c-4.9116-15.4465-7.8317-26.4026-8.3646-30.0844
	c-0.6464-6.5139-3.0244-12.4406-6.626-17.3796h-14.2737l13.929-0.4723c-7.1617-9.4889-18.9194-15.1707-31.6233-14.0168
	c-19.4044,1.7768-33.7216,18.8399-32.1704,38.2122C1185.6909,770.8969,1204.7899,784.2441,1226.7161,784.2441z"/>
<path class="st19" d="M1212.9385,722.7864h55.0944c0,30.8077-24.8705,56.1586-55.0944,56.1586
	c-30.224,0-55.0945-25.3509-55.0945-56.1586s24.8705-56.1586,55.0945-56.1586c29.5328,0,54.082,24.2049,55.0638,54.2916
	L1212.9385,722.7864z"/>
<g>
	<path class="st6" d="M1337.434,639.9199c-4.3037-6.1476-9.5604-9.8938-11.7408-8.3672l-9.1512,6.4064
		c-2.1805,1.5266-0.4594,7.7477,3.8444,13.8954c4.3038,6.1476,9.5604,9.8938,11.741,8.3672l9.1512-6.4064
		C1343.459,652.2888,1341.7378,646.0676,1337.434,639.9199z"/>
	<path class="st30" d="M1328.449,646.21c-3.5231-5.0325-7.8262-8.0991-9.6111-6.8495l-7.4913,5.2444
		c-1.785,1.2496-0.376,6.3423,3.1471,11.3748c3.5231,5.0325,7.8262,8.0991,9.6112,6.8495l7.4912-5.2444
		C1333.3811,656.3352,1331.9722,651.2425,1328.449,646.21z"/>
	<path class="st6" d="M1319.1504,652.7197c-10.3258-14.7497-22.9377-23.7375-28.1693-20.0751l-21.9559,15.3707l37.3929,53.4133
		l21.9559-15.3707C1333.6056,682.3955,1329.4761,667.4694,1319.1504,652.7197z"/>
	<path class="st30" d="M1292.824,721.4409l27.7466-19.4245c6.6113-4.6284,1.3927-23.491-11.6562-42.1307
		c-13.0491-18.6397-28.9872-29.998-35.5985-25.3696l-27.7466,19.4245c-3.3456,2.3422-3.6573,8.3323-1.4625,16.0911l-9.171,6.4203
		c-6.5393-4.7173-12.2745-6.4742-15.6201-4.1321l-81.7469,57.2283l47.2548,67.5004l81.7469-57.2283
		c3.3456-2.3421,3.6575-8.3322,1.4625-16.0911l9.171-6.4203C1283.7432,722.0262,1289.4784,723.783,1292.824,721.4409z"/>
	<path class="st31" d="M1221.4264,675.335c3.3456-2.3422,8.9596-0.7582,15.3038,3.6805l9.171-6.4205
		c-1.9998-7.48-1.5668-13.2973,1.7788-15.6395l27.7466-19.4244c6.519-4.5638,21.6415,5.7746,34.0138,23.1354
		c-0.1792-0.2605-0.3439-0.5206-0.5261-0.7809c-13.0491-18.6398-28.9872-29.9981-35.5985-25.3696l-27.7466,19.4244
		c-3.3457,2.3422-3.6573,8.3323-1.4626,16.0911l-9.1709,6.4203c-6.5393-4.7173-12.2745-6.4742-15.6201-4.132l-81.7468,57.2282
		l2.1107,3.0153L1221.4264,675.335z"/>
	<path class="st32" d="M1292.824,721.4409l27.7466-19.4245c6.6113-4.6284,1.3927-23.491-11.6562-42.1307
		c7.9429,11.346,9.0221,24.2958,2.4108,28.9241l-27.7466,19.4245c-3.3456,2.3422-8.0197,2.1011-12.8502-0.1754l-9.171,6.4203
		c0.4861,5.3179-0.8868,9.7923-4.2324,12.1344l-81.7469,57.2283l9.2455,13.2066l81.7469-57.2283
		c3.3456-2.3421,3.6575-8.3322,1.4625-16.0911l9.171-6.4203C1283.7432,722.0262,1289.4784,723.783,1292.824,721.4409z"/>
	
		<ellipse transform="matrix(0.8192 -0.5735 0.5735 0.8192 -227.8138 803.9445)" class="st33" cx="1161.196" cy="763.2983" rx="14.613" ry="41.1986"/>
	<path class="st31" d="M1271.672,646.2972L1271.672,646.2972c-1.0374-1.4818-0.677-3.5238,0.8047-4.5612l3.5364-2.4757
		c1.4817-1.0373,3.5238-0.677,4.5612,0.8047l0,0c1.0374,1.4818,0.677,3.5238-0.8047,4.5612l-3.5364,2.4756
		C1274.7513,648.1392,1272.7094,647.7789,1271.672,646.2972z"/>
	<path class="st31" d="M1251.7635,660.3308L1251.7635,660.3308c-1.0374-1.4818-0.677-3.5238,0.8047-4.5612l11.8868-8.5144
		c1.4818-1.0374,3.5239-0.6771,4.5612,0.8047l0,0c1.0374,1.4818,0.6771,3.5239-0.8047,4.5612l-11.8868,8.5145
		C1254.843,662.1729,1252.8009,661.8126,1251.7635,660.3308z"/>
	<g>
		<path class="st32" d="M1239.7729,709.5856L1239.7729,709.5856c-1.0436,0.7306-1.2974,2.1688-0.5668,3.2123l11.7217,16.7436
			c0.7306,1.0436,2.1687,1.2973,3.2123,0.5667l0,0c1.0436-0.7305,1.2974-2.1688,0.5668-3.2123l-11.7217-16.7437
			C1242.2546,709.1088,1240.8164,708.855,1239.7729,709.5856z"/>
		<path class="st32" d="M1227.3127,718.3085L1227.3127,718.3085c-1.0436,0.7306-1.2974,2.1688-0.5668,3.2123l11.7217,16.7436
			c0.7305,1.0436,2.1687,1.2973,3.2123,0.5668l0,0c1.0436-0.7306,1.2972-2.1688,0.5668-3.2123l-11.7217-16.7436
			C1229.7944,717.8317,1228.3562,717.578,1227.3127,718.3085z"/>
		<path class="st32" d="M1214.8525,727.0316L1214.8525,727.0316c-1.0436,0.7305-1.2974,2.1688-0.5668,3.2123l11.7217,16.7437
			c0.7305,1.0435,2.1687,1.2973,3.2123,0.5667l0,0c1.0436-0.7305,1.2972-2.1688,0.5668-3.2123l-11.7217-16.7436
			C1217.3342,726.5547,1215.896,726.301,1214.8525,727.0316z"/>
		<path class="st32" d="M1202.3922,735.7545L1202.3922,735.7545c-1.0435,0.7306-1.2972,2.1688-0.5667,3.2123l11.7217,16.7436
			c0.7305,1.0436,2.1687,1.2973,3.2123,0.5667l0,0c1.0436-0.7305,1.2972-2.1688,0.5668-3.2123l-11.7217-16.7437
			C1204.874,735.2777,1203.4358,735.024,1202.3922,735.7545z"/>
	</g>
</g>
<ellipse transform="matrix(0.8965 -0.443 0.443 0.8965 -182.4213 611.0673)" class="st19" cx="1216.8231" cy="696.0197" rx="59.2807" ry="36.307"/>
</svg>
